<svg width="54" height="53" viewBox="0 0 54 53" fill="none" xmlns="http://www.w3.org/2000/svg">
<g clip-path="url(#clip0_3334_269)">
<rect x="0.375244" width="53" height="53" rx="26.5" fill="#F8F8F8"/>
<path fill-rule="evenodd" clip-rule="evenodd" d="M26.9191 31.4832C25.9588 32.2032 24.9381 32.8523 23.8667 33.4244C22.8598 33.9684 21.7797 34.3886 20.654 34.6741C20.2152 34.7976 19.7582 34.8568 19.2994 34.8496C19.0996 34.8659 18.9009 34.8092 18.7462 34.6917C18.7004 34.6601 18.5783 34.5513 18.5249 34.2002C18.4691 33.7851 18.4859 33.3644 18.5745 32.9541C18.7785 31.9036 19.1326 30.8827 19.6276 29.9176C20.1422 28.8776 20.747 27.8775 21.4362 26.9268C22.1579 25.9724 22.9389 25.057 23.7751 24.1853C24.2101 23.764 24.6527 23.3463 25.1106 22.9461C25.5735 22.5506 26.0492 22.1703 26.5376 21.8052C27.5149 21.0967 28.5508 20.4594 29.6358 19.8991C30.6329 19.368 31.7015 18.9596 32.8142 18.6846C33.2436 18.5738 33.6886 18.5229 34.1344 18.5336C34.2645 18.5318 34.3938 18.552 34.516 18.5933C34.5575 18.6049 34.5954 18.6253 34.6266 18.653C34.6582 18.6791 34.683 18.7115 34.6991 18.7477C34.7529 18.8528 34.7865 18.9656 34.7983 19.0812C34.8544 19.489 34.8415 19.9022 34.7602 20.3063C34.5701 21.3521 34.2288 22.3698 33.7452 23.3322C33.2417 24.3751 32.6497 25.3798 31.9748 26.3371C31.6428 26.8075 31.2727 27.2849 30.8797 27.7412C30.4867 28.1976 30.0784 28.6434 29.6625 29.0822C28.7992 29.9305 27.8832 30.7322 26.9191 31.4832ZM22.3023 28.5664C22.1183 29.2361 22.0361 29.926 22.0581 30.6164L22.0391 30.6059C22.058 30.89 22.121 31.1701 22.226 31.4378V31.4835C22.3813 31.4528 22.5342 31.4129 22.6839 31.3641C23.2948 31.1568 23.8744 30.8784 24.4085 30.5357C25.6808 29.7571 26.8355 28.8269 27.8426 27.7695C28.8912 26.7368 29.7891 25.5827 30.5135 24.3364C30.8363 23.8019 31.0923 23.2355 31.2766 22.648C31.3334 22.4748 31.3743 22.2974 31.3987 22.1179C31.2131 22.082 31.0236 22.0655 30.834 22.0688C30.1058 22.0698 29.3818 22.1703 28.6858 22.3671C27.1207 22.7817 25.7062 23.5773 24.5917 24.6699C23.4759 25.7652 22.6872 27.1076 22.3023 28.5664Z" fill="white"/>
<path d="M36.1185 31.7366C33.2669 35.2821 29.7434 38.3252 25.7172 40.7195C23.6432 41.9523 21.3739 42.8819 18.9903 43.4751C17.7279 43.7743 16.4229 43.8927 15.1213 43.8262C14.4244 43.7758 13.7379 43.64 13.08 43.4225C12.3745 43.1912 11.726 42.8333 11.1722 42.3694C10.6197 41.8876 10.1841 41.3038 9.89399 40.6564C9.61904 40.0444 9.45037 39.3964 9.39415 38.7362C9.31891 37.5317 9.46861 36.3242 9.83676 35.1662C10.5711 33.0112 11.639 30.9647 13.0075 29.0898C15.6739 25.4584 18.8694 22.1807 22.5045 19.3486C19.391 22.6027 16.5484 26.099 14.446 29.8796C13.9335 30.8194 13.4825 31.7865 13.0953 32.7757C12.7231 33.7345 12.4473 34.7227 12.2711 35.7278C12.0954 36.639 12.0723 37.5694 12.2024 38.487C12.2575 38.8687 12.3759 39.2405 12.5535 39.5892C12.7016 39.8837 12.9162 40.1457 13.183 40.358C13.8104 40.8217 14.5778 41.0962 15.3808 41.1443C16.3906 41.2368 17.4093 41.2061 18.4104 41.053C20.6126 40.7133 22.7474 40.0733 24.7442 39.1539C26.8259 38.2158 28.8127 37.1092 30.6813 35.8472C31.6224 35.2153 32.5433 34.5507 33.4437 33.8533C34.3519 33.1723 35.2371 32.4492 36.1147 31.712L36.1185 31.7366Z" fill="#F78078"/>
<path d="M18.4141 21.528L19.4748 20.3696L20.566 19.2322C21.3025 18.481 22.0465 17.7333 22.8287 17.0172C23.6109 16.3011 24.416 15.6131 25.2439 14.911C26.0719 14.2089 26.9419 13.5876 27.85 12.9874C29.6827 11.7187 31.6892 10.6777 33.8176 9.89124C34.379 9.69368 34.9554 9.53412 35.5422 9.41383C35.8398 9.34714 36.1451 9.30501 36.4579 9.25587C36.7708 9.20672 37.0684 9.18917 37.3889 9.16811C38.0376 9.13276 38.6885 9.17048 39.3272 9.28044C40.0065 9.38654 40.664 9.5878 41.277 9.8772C41.9501 10.1817 42.5486 10.6094 43.036 11.1339C43.5246 11.6689 43.8836 12.2936 44.0891 12.9663C44.4427 14.1431 44.4689 15.3828 44.1654 16.5714C43.9109 17.6396 43.5269 18.6781 43.0207 19.6675C42.552 20.6235 42.022 21.5531 41.4334 22.4512C39.1411 25.9532 36.3529 29.1593 33.1422 31.9853C34.5156 30.4159 35.7896 28.775 36.9578 27.0708C38.117 25.3948 39.1239 23.6337 39.9683 21.8053C40.7813 20.0505 41.2527 18.1779 41.361 16.273C41.4139 15.4823 41.2999 14.6895 41.0252 13.9387C40.8028 13.3602 40.35 12.8809 39.7584 12.5977C39.4086 12.4251 39.0404 12.2863 38.6595 12.1835C38.2338 12.0738 37.7984 11.9986 37.3584 11.9588C36.3903 11.877 35.4149 11.9065 34.4548 12.0466C32.3736 12.3664 30.3725 13.03 28.5482 14.0053C26.6612 14.9974 24.8736 16.1416 23.2064 17.4244C22.3403 18.0247 21.539 18.6952 20.7339 19.3832L19.5626 20.4363L18.4141 21.528Z" fill="#F78078"/>
<path fill-rule="evenodd" clip-rule="evenodd" d="M39.9533 21.7842C39.1089 23.6126 38.102 25.3737 36.9428 27.0497C35.8101 28.7138 34.577 30.3182 33.2493 31.8554C33.2358 31.8689 33.2224 31.8827 33.2088 31.8967C33.18 31.9264 33.1507 31.9566 33.1196 31.9852C31.9015 33.2483 30.6032 34.444 29.2315 35.5658C27.8653 36.7144 26.4103 37.7703 24.8779 38.7251C24.0052 39.2628 23.098 39.7517 22.1612 40.1889C20.9432 40.6041 19.6828 40.9051 18.3991 41.0875C17.398 41.2406 16.3793 41.2713 15.3695 41.1788C14.6935 41.1238 14.0405 40.9256 13.4617 40.5996C13.4441 40.5871 13.4263 40.5746 13.4085 40.5621C13.3261 40.5042 13.2425 40.4454 13.1641 40.3819C13.0715 40.3009 12.9836 40.2153 12.9008 40.1257C12.762 39.969 12.6454 39.7968 12.5536 39.6132C12.376 39.2644 12.2576 38.8927 12.2026 38.5109C12.0724 37.5934 12.0956 36.6629 12.2712 35.7518C12.4474 34.7467 12.7233 33.7585 13.0954 32.7996C13.4826 31.8104 13.9337 30.8434 14.4461 29.9036C16.5447 26.1089 19.3835 22.6197 22.4894 19.3726C23.0693 18.8344 23.662 18.3078 24.2674 17.793C25.6132 16.6281 27.0491 15.5546 28.5638 14.581C30.0778 13.5898 31.7277 12.7871 33.4706 12.194C33.7911 12.1273 34.1154 12.0676 34.4398 12.0255C35.3999 11.8854 36.3753 11.8559 37.3434 11.9377C37.7834 11.9778 38.2187 12.053 38.6445 12.1624C39.0254 12.2652 39.3936 12.404 39.7434 12.5766C40.335 12.8598 40.7878 13.3391 41.0102 13.9176C41.2849 14.6684 41.3989 15.4612 41.3459 16.2519C41.2377 18.1568 40.7663 20.0294 39.9533 21.7842ZM23.3057 36.3941C24.7705 35.5895 26.1649 34.6811 27.4762 33.6771C28.777 32.639 30.0115 31.5326 31.1735 30.3633C31.7458 29.763 32.3029 29.1593 32.8371 28.5344C33.3738 27.9072 33.8825 27.2648 34.3633 26.6072C35.3018 25.301 36.1296 23.9303 36.8396 22.5072C37.5361 21.1689 38.0402 19.7529 38.3391 18.2948C38.4694 17.6667 38.4964 17.0241 38.4192 16.3887C38.3956 15.9838 38.2172 15.5996 37.9156 15.304C37.5718 15.0489 37.1399 14.9156 36.6984 14.9284C36.0039 14.91 35.3104 14.9893 34.6418 15.1636C33.0709 15.5543 31.5633 16.135 30.1585 16.8906C28.6667 17.6674 27.243 18.55 25.9003 19.5304C25.2326 20.0429 24.5763 20.5484 23.9468 21.096C23.3172 21.6436 22.6991 22.1948 22.1191 22.7915C21.5391 23.3883 20.963 23.9885 20.4326 24.6134C19.9022 25.2382 19.391 25.8806 18.9064 26.5335C17.9595 27.8449 17.1264 29.2229 16.4148 30.6547C15.702 32.0161 15.1888 33.4586 14.8886 34.9443C14.758 35.589 14.7336 36.2481 14.8161 36.8995C14.8479 37.3464 15.0538 37.7676 15.396 38.086C15.7753 38.3702 16.2542 38.5175 16.7429 38.5003C17.454 38.5068 18.1619 38.412 18.8415 38.2194C20.4093 37.7914 21.9099 37.1779 23.3057 36.3941Z" fill="white"/>
<path fill-rule="evenodd" clip-rule="evenodd" d="M30.1584 16.8908C31.5632 16.1352 33.0708 15.5544 34.6417 15.1637C35.311 14.9942 36.0045 14.9196 36.6983 14.9425C37.1398 14.9298 37.5716 15.063 37.9155 15.3181C38.2171 15.6138 38.3954 15.9979 38.4191 16.4028C38.4947 17.0337 38.4677 17.6714 38.339 18.2949C38.0401 19.753 37.536 21.169 36.8395 22.5073C36.1391 23.9368 35.3202 25.3146 34.3899 26.6284C33.8938 27.2849 33.3826 27.9308 32.8636 28.5556C32.3447 29.1804 31.7724 29.7842 31.2 30.3845C30.029 31.5496 28.7856 32.6514 27.476 33.6842C26.1648 34.6882 24.7704 35.5966 23.3056 36.4012C21.9098 37.185 20.4091 37.7986 18.8414 38.2266C18.1618 38.4192 17.4539 38.5139 16.7428 38.5074C16.254 38.5246 15.7752 38.3774 15.3959 38.0932C15.052 37.773 14.846 37.3489 14.816 36.8997C14.7302 36.2463 14.7521 35.5847 14.8808 34.9374C15.181 33.4517 15.6943 32.0092 16.407 30.6478C17.1275 29.2176 17.9696 27.8419 18.9253 26.5336C19.4023 25.8807 19.9097 25.2348 20.4516 24.6135C20.9934 23.9922 21.5543 23.3708 22.138 22.7916C22.7218 22.2124 23.3361 21.6437 23.9657 21.0961C24.5953 20.5485 25.2516 20.029 25.9193 19.5305C27.2558 18.5508 28.6731 17.6683 30.1584 16.8908ZM34.7905 19.0708C34.7786 18.9552 34.745 18.8423 34.6913 18.7373C34.6715 18.7042 34.6442 18.6754 34.6111 18.653C34.5799 18.6254 34.542 18.6049 34.5005 18.5933C34.3783 18.5521 34.249 18.5319 34.1189 18.5337C33.6731 18.523 33.2281 18.5739 32.7987 18.6846C31.686 18.9597 30.6174 19.368 29.6204 19.8992C28.5406 20.4601 27.5098 21.0974 26.5374 21.8053C26.0642 22.1563 25.6026 22.5355 25.1447 22.9356C24.6868 23.3358 24.2442 23.7535 23.8092 24.1748C22.973 25.0465 22.192 25.9619 21.4703 26.9163C20.7811 27.867 20.1763 28.8672 19.6617 29.9072C19.1668 30.8722 18.8127 31.8932 18.6086 32.9436C18.5162 33.3569 18.4969 33.7813 18.5514 34.2003C18.6048 34.5478 18.7269 34.6601 18.7727 34.6917C18.9273 34.8092 19.1261 34.866 19.3259 34.8497C19.7846 34.8569 20.2417 34.7976 20.6805 34.6742C21.7969 34.3866 22.8679 33.9665 23.8665 33.4245C24.9379 32.8523 25.9585 32.2033 26.9189 31.4833C27.8807 30.7287 28.7941 29.9235 29.6547 29.0717C30.0706 28.6329 30.4865 28.1801 30.8719 27.7307C31.2572 27.2814 31.6197 26.8075 31.9669 26.3266C32.6419 25.3693 33.2339 24.3646 33.7374 23.3218C34.2209 22.3593 34.5623 21.3416 34.7523 20.2959C34.8337 19.8918 34.8466 19.4785 34.7905 19.0708Z" fill="#F78078"/>
</g>
<defs>
<clipPath id="clip0_3334_269">
<rect x="0.375244" width="53" height="53" rx="26.5" fill="white"/>
</clipPath>
</defs>
</svg>
