<svg width="54" height="52" viewBox="0 0 54 52" fill="none" xmlns="http://www.w3.org/2000/svg">
<g clip-path="url(#clip0_3334_258)">
<rect x="0.375244" width="53" height="52" rx="26" fill="#F78078"/>
<circle cx="26.8739" cy="25.998" r="10.9737" transform="rotate(-45 26.8739 25.998)" fill="#F78078"/>
<circle cx="26.874" cy="25.998" r="8.24876" transform="rotate(-45 26.874 25.998)" fill="white"/>
<path fill-rule="evenodd" clip-rule="evenodd" d="M44.3752 25.9399L39.2172 27.0394C39.0033 29.5996 37.9961 32.0293 36.3358 33.9899L39.2843 38.3278L34.8616 35.4606C32.9024 37.1203 30.4736 38.1265 27.9146 38.3384L26.9283 43.5L25.8288 38.3348C23.2711 38.1222 20.8436 37.1161 18.8853 35.4571L14.5404 38.4091L17.4111 33.9828C15.7529 32.0244 14.748 29.5968 14.5369 27.0394L9.37524 26.053L14.5333 24.9535C14.7474 22.3962 15.7533 19.9691 17.4111 18.0101L14.4591 13.6652L18.8853 16.5359C20.845 14.8786 23.2715 13.8717 25.8288 13.6545L26.8151 8.5L27.9146 13.6545C30.4745 13.8671 32.9042 14.8731 34.8651 16.5323L39.203 13.5838L36.3358 18.003C37.9961 19.9636 39.0033 22.3933 39.2172 24.9535L44.3752 25.9399ZM15.9157 26.0103C15.9157 32.0631 20.8225 36.9699 26.8753 36.9699C32.9225 36.9563 37.8213 32.0575 37.8349 26.0103C37.8349 19.9575 32.9281 15.0507 26.8753 15.0507C20.8225 15.0507 15.9157 19.9575 15.9157 26.0103Z" fill="white"/>
</g>
<defs>
<clipPath id="clip0_3334_258">
<rect x="0.375244" width="53" height="52" rx="26" fill="white"/>
</clipPath>
</defs>
</svg>
