<svg width="54" height="53" viewBox="0 0 54 53" fill="none" xmlns="http://www.w3.org/2000/svg">
<g clip-path="url(#clip0_3334_244)">
<rect x="0.375244" width="53" height="53" rx="26.5" fill="#F8F8F8"/>
<path d="M14.853 15.9863V38.9225L13.8457 37.9186V15.9863H14.853Z" fill="white"/>
<path d="M37.5321 38.665H14.5925L15.5999 39.6724H37.5321V38.665Z" fill="white"/>
<path d="M14.412 12.5885L12.5987 10.7649L10.1985 10.7302L9.37524 11.5465L12.4007 14.572L14.3112 16.4824L16.0063 14.7873C16.8265 13.9666 17.9393 13.5056 19.0996 13.5056C20.2599 13.5056 21.3726 13.9666 22.1928 14.7873L38.4666 31.0646C39.2873 31.8848 39.7484 32.9975 39.7484 34.1578C39.7484 35.3181 39.2873 36.4308 38.4666 37.2511L36.7715 38.9496L38.6819 40.8601L41.7075 43.8856L42.5307 43.0624L42.4925 40.6621L40.6793 38.8489C43.2364 36.117 43.1703 31.8507 40.5299 29.1993L24.0616 12.731C21.4083 10.0925 17.142 10.0296 14.412 12.5885Z" fill="#F78078"/>
<path d="M14.157 38.2266L39.3969 12.9866L40.5047 14.0944L15.2647 39.3343L14.157 38.2266Z" fill="white"/>
<path d="M42.6201 11.9707L40.498 14.0929L39.3902 12.9851L41.5124 10.863L42.6201 11.9707Z" fill="#F78078"/>
<path d="M44.3752 14.2631L39.2273 9.11523H44.3752V14.2631Z" fill="#F78078"/>
<path d="M20.3727 32.0092L16.9408 35.4411L14.1863 34.6526L17.6182 31.2207L20.3727 32.0092Z" fill="#F78078"/>
<path d="M21.4773 33.1182L18.0454 36.5501L18.8339 39.3046L22.2658 35.8727L21.4773 33.1182Z" fill="#F78078"/>
</g>
<defs>
<clipPath id="clip0_3334_244">
<rect x="0.375244" width="53" height="53" rx="26.5" fill="white"/>
</clipPath>
</defs>
</svg>
