<svg width="72" height="72" viewBox="0 0 72 72" fill="none" xmlns="http://www.w3.org/2000/svg">
<path fill-rule="evenodd" clip-rule="evenodd" d="M36.0902 46.017C34.1145 47.4981 32.0149 48.8334 29.8108 50.0104C27.7395 51.1294 25.5175 51.9937 23.2018 52.5811C22.2993 52.8351 21.359 52.957 20.4154 52.9422C20.0043 52.9757 19.5954 52.859 19.2772 52.6172C19.183 52.5523 18.9319 52.3284 18.822 51.6063C18.7073 50.7522 18.7417 49.8868 18.924 49.0427C19.3438 46.8819 20.0722 44.7816 21.0904 42.7964C22.149 40.657 23.3932 38.5995 24.8109 36.6439C26.2957 34.6805 27.9022 32.7974 29.6224 31.0041C30.5173 30.1375 31.4278 29.2782 32.3697 28.455C33.322 27.6414 34.3006 26.8591 35.3053 26.1081C37.3157 24.6506 39.4467 23.3395 41.6788 22.1869C43.7299 21.0943 45.9282 20.2542 48.2171 19.6884C49.1005 19.4606 50.0159 19.3559 50.933 19.3779C51.2006 19.3742 51.4666 19.4158 51.7179 19.5006C51.8032 19.5244 51.8812 19.5665 51.9455 19.6234C52.0105 19.6772 52.0615 19.7439 52.0946 19.8184C52.2053 20.0345 52.2743 20.2666 52.2987 20.5044C52.4141 21.3431 52.3876 22.1933 52.2202 23.0246C51.8293 25.1759 51.1271 27.2694 50.1324 29.2493C49.0966 31.3945 47.8788 33.4614 46.4903 35.4307C45.8075 36.3983 45.0461 37.3804 44.2376 38.3192C43.4292 39.2579 42.5893 40.175 41.7337 41.0777C39.9577 42.8229 38.0733 44.4721 36.0902 46.017ZM26.5927 40.0163C26.2142 41.3939 26.0451 42.8131 26.0904 44.2335L26.0511 44.2118C26.0902 44.7962 26.2197 45.3725 26.4358 45.9233V46.0171C26.7551 45.954 27.0697 45.872 27.3777 45.7716C28.6345 45.3451 29.8268 44.7724 30.9255 44.0674C33.5428 42.4656 35.9182 40.5522 37.9897 38.3771C40.147 36.2526 41.994 33.8784 43.4842 31.3147C44.1483 30.2151 44.6749 29.0499 45.054 27.8413C45.1709 27.4849 45.255 27.1202 45.3052 26.7509C44.9233 26.677 44.5336 26.643 44.1435 26.6498C42.6456 26.6518 41.1563 26.8587 39.7244 27.2636C36.5047 28.1163 33.595 29.753 31.3022 32.0007C29.0069 34.2539 27.3845 37.0153 26.5927 40.0163Z" fill="white"/>
<path d="M55.0146 46.5365C49.1486 53.8302 41.9002 60.0902 33.6177 65.0157C29.3511 67.5517 24.683 69.464 19.7796 70.6843C17.1827 71.2997 14.4982 71.5433 11.8206 71.4065C10.3869 71.3028 8.97464 71.0235 7.62126 70.576C6.16995 70.1003 4.8359 69.3639 3.69667 68.4097C2.56012 67.4185 1.66406 66.2176 1.0672 64.8857C0.50158 63.6267 0.154597 62.2938 0.0389556 60.9357C-0.115831 58.4578 0.192128 55.9738 0.94946 53.5917C2.46007 49.1585 4.65684 44.9486 7.47213 41.0917C12.9573 33.6213 19.5308 26.8788 27.0087 21.0527C20.6038 27.7468 14.7562 34.9392 10.4313 42.7165C9.37709 44.6497 8.44923 46.6391 7.65266 48.674C6.88713 50.6465 6.31961 52.6793 5.95724 54.7471C5.59586 56.6213 5.54821 58.5354 5.81595 60.423C5.92925 61.2083 6.17279 61.973 6.53808 62.6904C6.84284 63.2962 7.28434 63.8353 7.83319 64.2719C9.1237 65.2258 10.7024 65.7906 12.3543 65.8894C14.4317 66.0797 16.5272 66.0166 18.5866 65.7017C23.1168 65.0029 27.5084 63.6862 31.6162 61.795C35.8985 59.8651 39.9857 57.5887 43.8295 54.9926C45.7657 53.6928 47.6599 52.3255 49.5123 50.8909C51.3804 49.49 53.2014 48.0024 55.0068 46.486L55.0146 46.5365Z" fill="#F78078"/>
<path d="M18.5943 25.5374L20.7764 23.1544L23.0212 20.8147C24.5361 19.2693 26.0667 17.7312 27.6758 16.2581C29.2849 14.7849 30.9411 13.3696 32.6443 11.9253C34.3476 10.4811 36.1372 9.20292 38.0053 7.96808C41.7755 5.3582 45.9031 3.21672 50.2814 1.59895C51.4365 1.19254 52.6222 0.864302 53.8293 0.616857C54.4415 0.479653 55.0694 0.392998 55.7131 0.291901C56.3567 0.190803 56.9689 0.154697 57.6283 0.11137C58.9627 0.0386499 60.3017 0.116252 61.6156 0.342449C63.0129 0.56071 64.3656 0.974721 65.6266 1.57006C67.0112 2.19655 68.2424 3.0762 69.245 4.15527C70.2502 5.25578 70.9888 6.54085 71.4114 7.92476C72.1389 10.3456 72.1928 12.8959 71.5684 15.341C71.0448 17.5383 70.2549 19.6747 69.2136 21.7101C68.2495 23.6768 67.1592 25.5889 65.9484 27.4366C61.2326 34.6406 55.497 41.2359 48.8921 47.0495C51.7174 43.821 54.3382 40.4455 56.7413 36.9397C59.126 33.492 61.1973 29.869 62.9343 26.1078C64.6067 22.498 65.5765 18.6459 65.7993 14.7272C65.9082 13.1004 65.6736 11.4697 65.1085 9.92504C64.651 8.73506 63.7197 7.74917 62.5026 7.16653C61.7831 6.81147 61.0255 6.52591 60.242 6.31442C59.3662 6.08868 58.4706 5.93403 57.5655 5.85226C55.574 5.68394 53.5674 5.74458 51.5922 6.03279C47.311 6.69069 43.1946 8.05583 39.4417 10.0622C35.5599 12.1031 31.8825 14.4568 28.4529 17.0957C26.6711 18.3306 25.0228 19.7098 23.3666 21.1252L20.9569 23.2916L18.5943 25.5374Z" fill="#F78078"/>
<path fill-rule="evenodd" clip-rule="evenodd" d="M62.903 26.0648C61.166 29.826 59.0947 33.4489 56.71 36.8966C54.38 40.3199 51.8433 43.6204 49.112 46.7825C49.0843 46.8103 49.0566 46.8388 49.0287 46.8676C48.9695 46.9286 48.9091 46.9908 48.8451 47.0497C46.3395 49.6481 43.6687 52.1076 40.8468 54.4154C38.0364 56.7783 35.0432 58.9504 31.8909 60.9145C30.0956 62.0208 28.2293 63.0264 26.3023 63.9258C23.7967 64.7799 21.2038 65.3992 18.563 65.7744C16.5036 66.0893 14.4081 66.1524 12.3307 65.9621C10.9401 65.849 9.59683 65.4412 8.40615 64.7706C8.36984 64.7449 8.33328 64.7192 8.2966 64.6935C8.12715 64.5744 7.95523 64.4535 7.79391 64.3229C7.60337 64.1561 7.42259 63.9802 7.25232 63.7958C6.96681 63.4735 6.72681 63.1192 6.53805 62.7415C6.17275 62.0241 5.92922 61.2593 5.81592 60.474C5.54818 58.5865 5.59583 56.6724 5.95721 54.7981C6.31958 52.7304 6.88709 50.6975 7.65263 48.725C8.4492 46.6901 9.37706 44.7007 10.4312 42.7675C14.7483 34.9613 20.5881 27.7834 26.9773 21.1038C28.1704 19.9965 29.3896 18.9133 30.635 17.8542C33.4035 15.4579 36.3573 13.2497 39.4732 11.2468C42.5878 9.20767 45.9819 7.55654 49.5672 6.33633C50.2266 6.19913 50.8938 6.07637 51.5609 5.98971C53.5361 5.70151 55.5427 5.64086 57.5342 5.80918C58.4392 5.89161 59.3348 6.04625 60.2107 6.27134C60.9942 6.48284 61.7518 6.76839 62.4713 7.12345C63.6884 7.70609 64.6197 8.69198 65.0772 9.88196C65.6423 11.4266 65.8768 13.0574 65.7679 14.6841C65.5452 18.6028 64.5754 22.455 62.903 26.0648ZM28.657 56.1198C31.6703 54.4647 34.5387 52.596 37.2361 50.5305C39.9122 48.3951 42.4517 46.119 44.842 43.7137C46.0194 42.4788 47.1653 41.2368 48.2642 39.9514C49.3683 38.6612 50.4149 37.3397 51.4039 35.9869C53.3344 33.2998 55.0375 30.48 56.498 27.5525C57.9308 24.7995 58.9678 21.8865 59.5827 18.887C59.8507 17.595 59.9062 16.2732 59.7476 14.9659C59.6989 14.133 59.3319 13.3427 58.7115 12.7345C58.0042 12.2098 57.1158 11.9357 56.2076 11.9619C54.7788 11.9241 53.3521 12.0873 51.9769 12.4457C48.7453 13.2495 45.644 14.4442 42.7541 15.9985C39.6852 17.5964 36.7564 19.412 33.9944 21.4289C32.6208 22.4832 31.2708 23.5231 29.9756 24.6496C28.6805 25.7761 27.409 26.9098 26.2159 28.1375C25.0228 29.3651 23.8376 30.5999 22.7466 31.8853C21.6555 33.1707 20.6037 34.4922 19.6069 35.8353C17.6589 38.533 15.9451 41.3676 14.4814 44.313C13.015 47.1137 11.9593 50.0811 11.3417 53.1374C11.0732 54.4637 11.0229 55.8196 11.1926 57.1596C11.258 58.0788 11.6816 58.9454 12.3856 59.6004C13.1658 60.185 14.1509 60.488 15.1564 60.4525C16.6192 60.4659 18.0754 60.2711 19.4734 59.8748C22.6985 58.9944 25.7855 57.7322 28.657 56.1198Z" fill="white"/>
<path fill-rule="evenodd" clip-rule="evenodd" d="M42.7541 15.998C45.644 14.4437 48.7453 13.249 51.9768 12.4452C53.3537 12.0965 54.7804 11.9431 56.2075 11.9903C57.1158 11.964 58.0041 12.2382 58.7114 12.7629C59.3319 13.3711 59.6988 14.1614 59.7475 14.9943C59.903 16.292 59.8475 17.6039 59.5827 18.8865C58.9677 21.886 57.9308 24.799 56.498 27.552C55.0573 30.4928 53.3726 33.3271 51.4588 36.0298C50.4384 37.3802 49.3866 38.7089 48.3191 39.9942C47.2516 41.2796 46.0743 42.5217 44.8969 43.7565C42.488 46.1534 39.9301 48.4199 37.2361 50.5445C34.5386 52.6099 31.6702 54.4787 28.6569 56.1337C25.7855 57.7461 22.6985 59.0084 19.4734 59.8888C18.0754 60.285 16.6191 60.4799 15.1563 60.4665C14.1508 60.5019 13.1658 60.199 12.3856 59.6144C11.6781 58.9557 11.2543 58.0834 11.1925 57.1591C11.0161 55.8151 11.0611 54.4542 11.3259 53.1225C11.9435 50.0662 12.9993 47.0988 14.4656 44.2981C15.9478 41.356 17.68 38.5262 19.6461 35.8348C20.6272 34.4917 21.6712 33.1629 22.7857 31.8848C23.9003 30.6066 25.0542 29.3285 26.2551 28.137C27.456 26.9455 28.7197 25.7756 30.0148 24.6491C31.31 23.5226 32.66 22.4538 34.0336 21.4284C36.783 19.4131 39.6986 17.5975 42.7541 15.998ZM52.283 20.4823C52.2586 20.2444 52.1895 20.0123 52.0789 19.7962C52.0383 19.7281 51.982 19.669 51.9141 19.6229C51.8498 19.5661 51.7718 19.524 51.6864 19.5002C51.4352 19.4153 51.1691 19.3737 50.9015 19.3774C49.9845 19.3554 49.069 19.4601 48.1857 19.6879C45.8967 20.2538 43.6985 21.0938 41.6473 22.1865C39.4261 23.3404 37.3056 24.6514 35.3052 26.1076C34.3319 26.8297 33.3821 27.6096 32.4402 28.4328C31.4983 29.2561 30.5878 30.1154 29.693 30.9819C27.9728 32.7753 26.3663 34.6583 24.8815 36.6217C23.4638 38.5774 22.2196 40.6348 21.161 42.7742C20.1428 44.7594 19.4144 46.8598 18.9946 49.0206C18.8045 49.8709 18.7648 50.7439 18.8769 51.6058C18.9867 52.3207 19.2379 52.5518 19.3321 52.6168C19.6503 52.8585 20.0592 52.9753 20.4702 52.9417C21.4139 52.9565 22.3542 52.8347 23.2567 52.5807C25.5534 51.9891 27.7566 51.125 29.8108 50.0099C32.0148 48.8329 34.1145 47.4976 36.0901 46.0166C38.0686 44.4642 39.9477 42.8078 41.718 41.0556C42.5735 40.1529 43.4291 39.2214 44.2219 38.2971C45.0146 37.3727 45.7603 36.3979 46.4746 35.4086C47.863 33.4392 49.0808 31.3724 50.1166 29.2272C51.1113 27.2473 51.8135 25.1538 52.2045 23.0025C52.3719 22.1712 52.3984 21.321 52.283 20.4823Z" fill="#F78078"/>
</svg>
