<svg width="36" height="35" viewBox="0 0 36 35" fill="none" xmlns="http://www.w3.org/2000/svg">
<path fill-rule="evenodd" clip-rule="evenodd" d="M17.9191 22.4837C16.9588 23.2037 15.9381 23.8528 14.8667 24.4249C13.8598 24.9689 12.7797 25.3891 11.654 25.6746C11.2152 25.7981 10.7582 25.8573 10.2994 25.8501C10.0996 25.8664 9.90086 25.8097 9.74618 25.6922C9.70039 25.6606 9.57829 25.5518 9.52488 25.2007C9.46911 24.7856 9.48586 24.3649 9.57448 23.9546C9.77853 22.9041 10.1326 21.8831 10.6276 20.9181C11.1422 19.8781 11.747 18.878 12.4362 17.9273C13.1579 16.9729 13.9389 16.0575 14.7751 15.1857C15.2101 14.7645 15.6527 14.3468 16.1106 13.9466C16.5735 13.5511 17.0492 13.1708 17.5376 12.8057C18.5149 12.0972 19.5508 11.4599 20.6358 10.8996C21.6329 10.3685 22.7015 9.96012 23.8142 9.68505C24.2436 9.5743 24.6886 9.52342 25.1344 9.53411C25.2645 9.5323 25.3938 9.55253 25.516 9.59378C25.5575 9.60536 25.5954 9.62581 25.6266 9.65346C25.6582 9.67962 25.683 9.71202 25.6991 9.74824C25.7529 9.85328 25.7865 9.96612 25.7983 10.0817C25.8544 10.4895 25.8415 10.9027 25.7602 11.3068C25.5701 12.3526 25.2288 13.3703 24.7452 14.3327C24.2417 15.3755 23.6497 16.3803 22.9748 17.3376C22.6428 17.808 22.2727 18.2854 21.8797 18.7417C21.4867 19.1981 21.0784 19.6439 20.6625 20.0827C19.7992 20.931 18.8832 21.7327 17.9191 22.4837ZM13.3023 19.5669C13.1183 20.2365 13.0361 20.9265 13.0581 21.6169L13.0391 21.6064C13.058 21.8905 13.121 22.1706 13.226 22.4383V22.484C13.3813 22.4533 13.5342 22.4134 13.6839 22.3646C14.2948 22.1573 14.8744 21.8789 15.4085 21.5362C16.6808 20.7575 17.8355 19.8274 18.8426 18.77C19.8912 17.7373 20.7891 16.5832 21.5135 15.3369C21.8363 14.8024 22.0923 14.236 22.2766 13.6485C22.3334 13.4752 22.3743 13.2979 22.3987 13.1184C22.2131 13.0825 22.0236 13.066 21.834 13.0693C21.1058 13.0702 20.3818 13.1708 19.6858 13.3676C18.1207 13.7822 16.7062 14.5778 15.5917 15.6704C14.4759 16.7657 13.6872 18.1081 13.3023 19.5669Z" fill="white"/>
<path d="M27.1185 22.7371C24.2669 26.2826 20.7434 29.3257 16.7172 31.72C14.6432 32.9528 12.3739 33.8824 9.99033 34.4756C8.72792 34.7748 7.42294 34.8932 6.12134 34.8267C5.4244 34.7763 4.73789 34.6405 4.08 34.423C3.3745 34.1917 2.726 33.8338 2.17221 33.3699C1.61972 32.8881 1.18413 32.3043 0.893992 31.6568C0.619038 31.0448 0.450366 30.3969 0.394151 29.7367C0.318907 28.5322 0.46861 27.3247 0.836758 26.1667C1.57108 24.0117 2.63896 21.9652 4.0075 20.0903C6.67392 16.4589 9.86939 13.1812 13.5045 10.3491C10.391 13.6032 7.54836 17.0995 5.44598 20.8801C4.93353 21.8199 4.48249 22.7869 4.09526 23.7761C3.72313 24.735 3.44725 25.7232 3.2711 26.7283C3.09543 27.6394 3.07227 28.5699 3.20242 29.4875C3.25749 29.8692 3.37588 30.241 3.55345 30.5897C3.7016 30.8842 3.91622 31.1462 4.18302 31.3585C4.81036 31.8222 5.57777 32.0967 6.38079 32.1448C7.39061 32.2373 8.40929 32.2066 9.41036 32.0535C11.6126 31.7138 13.7474 31.0738 15.7442 30.1544C17.8259 29.2163 19.8127 28.1097 21.6813 26.8477C22.6224 26.2158 23.5433 25.5512 24.4437 24.8538C25.3519 24.1728 26.2371 23.4497 27.1147 22.7125L27.1185 22.7371Z" fill="#F78078"/>
<path d="M9.41406 12.5285L10.4748 11.3701L11.566 10.2327C12.3025 9.48151 13.0465 8.73381 13.8287 8.0177C14.6109 7.30159 15.416 6.61357 16.2439 5.9115C17.0719 5.20944 17.9419 4.58811 18.85 3.98784C20.6827 2.71914 22.6892 1.67815 24.8176 0.891728C25.379 0.694168 25.9554 0.534609 26.5422 0.414323C26.8398 0.347626 27.1451 0.305502 27.4579 0.256358C27.7708 0.207213 28.0684 0.189661 28.3889 0.168599C29.0376 0.133249 29.6885 0.170973 30.3272 0.28093C31.0065 0.387029 31.664 0.588285 32.277 0.877686C32.9501 1.18223 33.5486 1.60984 34.036 2.13439C34.5246 2.66936 34.8837 3.29405 35.0891 3.96678C35.4427 5.14359 35.4689 6.38331 35.1654 7.57189C34.9109 8.64006 34.5269 9.67859 34.0207 10.668C33.552 11.624 33.022 12.5536 32.4334 13.4517C30.1411 16.9537 27.3529 20.1597 24.1422 22.9858C25.5156 21.4164 26.7896 19.7755 27.9578 18.0713C29.117 16.3953 30.1239 14.6342 30.9683 12.8058C31.7813 11.051 32.2527 9.17844 32.361 7.27351C32.4139 6.48274 32.2999 5.69003 32.0252 4.93914C31.8028 4.36068 31.35 3.88143 30.7584 3.59819C30.4086 3.4256 30.0404 3.28679 29.6595 3.18397C29.2338 3.07424 28.7984 2.99907 28.3584 2.95931C27.3903 2.87749 26.4149 2.90697 25.4548 3.04707C23.3736 3.36688 21.3725 4.0305 19.5482 5.00584C17.6612 5.99792 15.8736 7.1421 14.2064 8.4249C13.3403 9.02517 12.539 9.69564 11.7339 10.3837L10.5626 11.4368L9.41406 12.5285Z" fill="#F78078"/>
<path fill-rule="evenodd" clip-rule="evenodd" d="M30.9533 12.7847C30.1089 14.6131 29.102 16.3742 27.9428 18.0502C26.8101 19.7143 25.577 21.3187 24.2493 22.8558C24.2358 22.8693 24.2224 22.8832 24.2088 22.8972C24.18 22.9269 24.1507 22.9571 24.1196 22.9857C22.9015 24.2488 21.6032 25.4444 20.2315 26.5663C18.8653 27.7149 17.4103 28.7708 15.8779 29.7256C15.0052 30.2633 14.098 30.7522 13.1612 31.1894C11.9432 31.6046 10.6828 31.9056 9.39906 32.088C8.39798 32.2411 7.37931 32.2718 6.36949 32.1793C5.69348 32.1243 5.0405 31.926 4.4617 31.6001C4.44405 31.5876 4.42628 31.5751 4.40846 31.5626C4.32608 31.5047 4.2425 31.4459 4.16408 31.3824C4.07146 31.3014 3.98358 31.2158 3.90081 31.1262C3.76202 30.9695 3.64535 30.7973 3.55359 30.6137C3.37602 30.2649 3.25763 29.8932 3.20256 29.5114C3.07241 28.5939 3.09557 27.6634 3.27124 26.7523C3.44739 25.7472 3.72327 24.759 4.0954 23.8001C4.48263 22.8109 4.93367 21.8439 5.44612 20.9041C7.54469 17.1094 10.3835 13.6202 13.4894 10.3731C14.0693 9.83485 14.662 9.3083 15.2674 8.79345C16.6132 7.62859 18.0491 6.55512 19.5638 5.58149C21.0778 4.59026 22.7277 3.78762 24.4706 3.19447C24.7911 3.12777 25.1154 3.06809 25.4398 3.02597C26.3999 2.88587 27.3753 2.85639 28.3434 2.93821C28.7834 2.97828 29.2187 3.05345 29.6445 3.16287C30.0254 3.26568 30.3936 3.4045 30.7434 3.57709C31.335 3.86033 31.7878 4.33958 32.0102 4.91804C32.2849 5.66892 32.3989 6.46164 32.3459 7.25241C32.2377 9.15734 31.7663 11.0299 30.9533 12.7847ZM14.3057 27.3945C15.7705 26.59 17.1649 25.6816 18.4762 24.6775C19.777 23.6395 21.0115 22.5331 22.1735 21.3638C22.7458 20.7635 23.3029 20.1597 23.8371 19.5349C24.3738 18.9077 24.8825 18.2653 25.3633 17.6077C26.3018 16.3015 27.1296 14.9307 27.8396 13.5077C28.5361 12.1694 29.0402 10.7533 29.3391 9.29527C29.4694 8.66717 29.4964 8.02464 29.4192 7.38916C29.3956 6.98428 29.2172 6.60012 28.9156 6.30447C28.5718 6.04937 28.1399 5.91611 27.6984 5.92886C27.0039 5.9105 26.3104 5.98981 25.6418 6.16405C24.0709 6.55477 22.5633 7.13553 21.1585 7.89114C19.6667 8.66786 18.243 9.55046 16.9003 10.5309C16.2326 11.0434 15.5763 11.5489 14.9468 12.0965C14.3172 12.6441 13.6991 13.1952 13.1191 13.792C12.5391 14.3888 11.963 14.989 11.4326 15.6139C10.9022 16.2387 10.391 16.8811 9.90638 17.534C8.95946 18.8454 8.12636 20.2234 7.4148 21.6551C6.70201 23.0166 6.18878 24.4591 5.88857 25.9448C5.75804 26.5895 5.7336 27.2486 5.81608 27.9C5.8479 28.3468 6.05382 28.7681 6.39604 29.0865C6.7753 29.3707 7.25416 29.518 7.74294 29.5007C8.45402 29.5073 9.16192 29.4125 9.84151 29.2199C11.4093 28.7919 12.9099 28.1783 14.3057 27.3945Z" fill="white"/>
<path fill-rule="evenodd" clip-rule="evenodd" d="M21.1584 7.89125C22.5632 7.13564 24.0708 6.55488 25.6417 6.16416C26.311 5.99466 27.0045 5.92009 27.6983 5.94301C28.1398 5.93027 28.5716 6.06353 28.9155 6.31862C29.2171 6.61427 29.3954 6.99843 29.4191 7.40331C29.4947 8.03416 29.4677 8.67185 29.339 9.29538C29.0401 10.7535 28.536 12.1695 27.8395 13.5078C27.1391 14.9373 26.3202 16.3151 25.3899 17.6289C24.8938 18.2853 24.3826 18.9312 23.8636 19.5561C23.3447 20.1809 22.7724 20.7847 22.2 21.385C21.029 22.5501 19.7856 23.6519 18.476 24.6847C17.1648 25.6887 15.7704 26.5971 14.3056 27.4017C12.9098 28.1855 11.4091 28.7991 9.84139 29.227C9.16179 29.4197 8.4539 29.5144 7.74282 29.5079C7.25403 29.5251 6.77518 29.3778 6.39592 29.0937C6.05202 28.7735 5.84597 28.3494 5.81595 27.9001C5.73019 27.2468 5.75205 26.5852 5.88082 25.9379C6.18103 24.4522 6.69425 23.0097 7.40705 21.6482C8.12754 20.2181 8.96958 18.8424 9.92533 17.5341C10.4023 16.8812 10.9097 16.2353 11.4516 15.614C11.9934 14.9926 12.5543 14.3713 13.138 13.7921C13.7218 13.2129 14.3361 12.6442 14.9657 12.0966C15.5953 11.549 16.2516 11.0295 16.9193 10.531C18.2558 9.55133 19.6731 8.66875 21.1584 7.89125ZM25.7905 10.0712C25.7786 9.95564 25.745 9.84281 25.6913 9.73776C25.6715 9.70465 25.6442 9.6759 25.6111 9.65351C25.5799 9.62587 25.542 9.60542 25.5005 9.59384C25.3783 9.55259 25.249 9.53236 25.1189 9.53416C24.6731 9.52348 24.2281 9.57436 23.7987 9.68511C22.686 9.96018 21.6174 10.3685 20.6204 10.8997C19.5406 11.4606 18.5098 12.0979 17.5374 12.8058C17.0642 13.1568 16.6026 13.5359 16.1447 13.9361C15.6868 14.3363 15.2442 14.754 14.8092 15.1753C13.973 16.047 13.192 16.9624 12.4703 17.9168C11.7811 18.8675 11.1763 19.8677 10.6617 20.9076C10.1668 21.8727 9.81265 22.8937 9.60859 23.9441C9.5162 24.3574 9.49688 24.7818 9.55136 25.2008C9.60478 25.5483 9.72688 25.6606 9.77267 25.6922C9.92735 25.8097 10.1261 25.8665 10.3259 25.8502C10.7846 25.8574 11.2417 25.7981 11.6805 25.6747C12.7969 25.3871 13.8679 24.967 14.8665 24.425C15.9379 23.8528 16.9585 23.2037 17.9189 22.4838C18.8807 21.7292 19.7941 20.9239 20.6547 20.0722C21.0706 19.6334 21.4865 19.1806 21.8719 18.7312C22.2572 18.2819 22.6197 17.808 22.9669 17.3271C23.6419 16.3698 24.2339 15.3651 24.7374 14.3223C25.2209 13.3598 25.5623 12.3421 25.7523 11.2963C25.8337 10.8922 25.8466 10.479 25.7905 10.0712Z" fill="#F78078"/>
</svg>
