<svg width="36" height="36" viewBox="0 0 36 36" fill="none" xmlns="http://www.w3.org/2000/svg">
<circle cx="17.8739" cy="17.998" r="10.9737" transform="rotate(-45 17.8739 17.998)" fill="#F78078"/>
<circle cx="17.8739" cy="17.998" r="8.24876" transform="rotate(-45 17.8739 17.998)" fill="white"/>
<path fill-rule="evenodd" clip-rule="evenodd" d="M35.3752 17.9399L30.2171 19.0394C30.0033 21.5996 28.996 24.0293 27.3358 25.9899L30.2843 30.3278L25.8615 27.4606C23.9023 29.1203 21.4735 30.1265 18.9146 30.3384L17.9282 35.5L16.8287 30.3348C14.271 30.1222 11.8435 29.1161 9.88528 27.4571L5.54033 30.4091L8.41104 25.9828C6.75287 24.0244 5.74798 21.5968 5.5368 19.0394L0.375183 18.053L5.53326 16.9535C5.7473 14.3962 6.75322 11.9691 8.41104 10.0101L5.45902 5.66515L9.88528 8.53586C11.8449 6.87858 14.2714 5.87166 16.8287 5.65455L17.8151 0.5L18.9146 5.65455C21.4744 5.86714 23.9042 6.87315 25.8651 8.53232L30.203 5.58384L27.3358 10.003C28.996 11.9636 30.0033 14.3933 30.2171 16.9535L35.3752 17.9399ZM6.91566 18.0103C6.91566 24.0631 11.8224 28.9699 17.8753 28.9699C23.9224 28.9563 28.8212 24.0575 28.8348 18.0103C28.8348 11.9575 23.9281 7.05073 17.8753 7.05073C11.8224 7.05073 6.91566 11.9575 6.91566 18.0103Z" fill="white"/>
</svg>
