<svg width="72" height="73" viewBox="0 0 72 73" fill="none" xmlns="http://www.w3.org/2000/svg">
<circle cx="35.9975" cy="36.231" r="22.5745" transform="rotate(-45 35.9975 36.231)" fill="#F78078"/>
<circle cx="35.9974" cy="36.231" r="16.9689" transform="rotate(-45 35.9974 36.231)" fill="white"/>
<path fill-rule="evenodd" clip-rule="evenodd" d="M72 36.1122L61.3891 38.374C60.9492 43.6407 58.8772 48.639 55.4618 52.6722L61.5273 61.5958L52.4291 55.6977C48.3987 59.1119 43.4023 61.1817 38.1382 61.6177L36.1091 72.2358L33.8473 61.6104C28.5857 61.1729 23.592 59.1033 19.5636 55.6904L10.6255 61.7631L16.5309 52.6577C13.1198 48.6289 11.0526 43.635 10.6182 38.374L0 36.3449L10.6109 34.0831C11.0512 28.8222 13.1205 23.8294 16.5309 19.7995L10.4582 10.8613L19.5636 16.7668C23.5949 13.3575 28.5866 11.2861 33.8473 10.8395L35.8764 0.23584L38.1382 10.8395C43.4042 11.2768 48.4025 13.3463 52.4364 16.7595L61.36 10.694L55.4618 19.7849C58.8772 23.8182 60.9492 28.8164 61.3891 34.0831L72 36.1122ZM13.4546 36.2574C13.4546 48.7089 23.5485 58.8028 36 58.8028C48.4399 58.7748 58.5175 48.6973 58.5455 36.2574C58.5455 23.8059 48.4516 13.7119 36 13.7119C23.5485 13.7119 13.4546 23.8059 13.4546 36.2574Z" fill="white"/>
</svg>
