<svg width="36" height="36" viewBox="0 0 36 36" fill="none" xmlns="http://www.w3.org/2000/svg">
<path d="M5.9023 7.4856V30.4217L4.89496 29.4179V7.4856H5.9023V7.4856Z" fill="white"/>
<path d="M28.5815 30.1643H5.64185L6.64919 31.1716H28.5815V30.1643V30.1643Z" fill="white"/>
<path d="M5.46121 4.08781L3.64799 2.26418L1.24774 2.22944L0.4245 3.04573L3.45 6.07123L5.36048 7.98171L7.05559 6.2866C7.8758 5.46592 8.98853 5.00482 10.1488 5.00482C11.3091 5.00482 12.4218 5.46592 13.2421 6.2866L29.5158 22.5639C30.3365 23.3841 30.7976 24.4968 30.7976 25.6571C30.7976 26.8174 30.3365 27.9301 29.5158 28.7503L27.8207 30.4489L29.7312 32.3594L32.7567 35.3849L33.5799 34.5616L33.5417 32.1614L31.7285 30.3482C34.2856 27.6163 34.2196 23.35 31.5792 20.6985L15.1109 4.23023C12.4575 1.5918 8.19122 1.52883 5.46121 4.08781Z" fill="#F78078"/>
<path d="M5.20624 29.7258L30.4462 4.48591L31.5539 5.59365L6.31398 30.8336L5.20624 29.7258Z" fill="white"/>
<path d="M33.6694 3.46997L31.5472 5.59213L30.4395 4.48438L32.5616 2.36222L33.6694 3.46997Z" fill="#F78078"/>
<path d="M35.4245 5.76237L30.2766 0.614502H35.4245V5.76237V5.76237Z" fill="#F78078"/>
<path d="M11.422 23.5085L7.99009 26.9404L5.23553 26.1519L8.66744 22.72L11.422 23.5085V23.5085Z" fill="#F78078"/>
<path d="M12.5266 24.6174L9.09467 28.0493L9.88317 30.8039L13.3151 27.372L12.5266 24.6174V24.6174Z" fill="#F78078"/>
</svg>
