<svg width="36" height="35" viewBox="0 0 36 35" fill="none" xmlns="http://www.w3.org/2000/svg">
<path d="M5.85298 6.98584V29.922L4.84564 28.9181V6.98584H5.85298V6.98584Z" fill="white"/>
<path d="M28.5321 29.6646H5.59253L6.59987 30.6719H28.5321V29.6646V29.6646Z" fill="white"/>
<path d="M5.41189 3.58806L3.59868 1.76442L1.19842 1.72968L0.375183 2.54598L3.40068 5.57148L5.31116 7.48195L7.00627 5.78684C7.82649 4.96616 8.93922 4.50507 10.0995 4.50507C11.2598 4.50507 12.3725 4.96616 13.1927 5.78684L29.4665 22.0641C30.2872 22.8843 30.7483 23.997 30.7483 25.1573C30.7483 26.3176 30.2872 27.4304 29.4665 28.2506L27.7714 29.9492L29.6819 31.8596L32.7074 34.8851L33.5306 34.0619L33.4924 31.6616L31.6792 29.8484C34.2363 27.1165 34.1703 22.8502 31.5298 20.1988L15.0615 3.73047C12.4082 1.09204 8.14191 1.02907 5.41189 3.58806Z" fill="#F78078"/>
<path d="M5.15692 29.2261L30.3968 3.98615L31.5046 5.0939L6.26467 30.3338L5.15692 29.2261Z" fill="white"/>
<path d="M33.6201 2.97021L31.4979 5.09237L30.3902 3.98463L32.5123 1.86247L33.6201 2.97021Z" fill="#F78078"/>
<path d="M35.3752 5.26261L30.2273 0.114746H35.3752V5.26261V5.26261Z" fill="#F78078"/>
<path d="M11.3727 23.0087L7.94078 26.4406L5.18622 25.6521L8.61813 22.2202L11.3727 23.0087V23.0087Z" fill="#F78078"/>
<path d="M12.4773 24.1177L9.04535 27.5496L9.83385 30.3041L13.2658 26.8722L12.4773 24.1177V24.1177Z" fill="#F78078"/>
</svg>
