<svg width="72" height="72" viewBox="0 0 72 72" fill="none" xmlns="http://www.w3.org/2000/svg">
<path d="M11.2688 14.3701V61.5531L9.19653 59.488V14.3701H11.2688V14.3701Z" fill="white"/>
<path d="M57.9231 61.0239H10.7329L12.8052 63.0962H57.9231V61.0239V61.0239Z" fill="white"/>
<path d="M10.3613 7.38112L6.6312 3.62964L1.69353 3.55818L0 5.23742L6.2239 11.4613L10.154 15.3914L13.6411 11.9043C15.3284 10.2161 17.6175 9.26755 20.0044 9.26755C22.3913 9.26755 24.6803 10.2161 26.3676 11.9043L59.8452 45.3891C61.5334 47.0764 62.482 49.3654 62.482 51.7523C62.482 54.1392 61.5334 56.4282 59.8452 58.1155L56.3581 61.6098L60.2882 65.5399L66.5121 71.7638L68.2056 70.0703L68.127 65.1326L64.397 61.4026C69.6573 55.7827 69.5214 47.0062 64.0897 41.5518L30.212 7.6741C24.7537 2.24645 15.9773 2.11692 10.3613 7.38112Z" fill="#F78078"/>
<path d="M9.83673 60.1221L61.759 8.19983L64.0378 10.4786L12.1155 62.4009L9.83673 60.1221Z" fill="white"/>
<path d="M68.3897 6.11035L64.0241 10.4759L61.7453 8.19714L66.1109 3.83155L68.3897 6.11035Z" fill="#F78078"/>
<path d="M72 10.8258L61.4101 0.23584H72V10.8258V10.8258Z" fill="#F78078"/>
<path d="M22.6233 47.333L15.5633 54.393L9.89679 52.7709L16.9567 45.7109L22.6233 47.333V47.333Z" fill="#F78078"/>
<path d="M24.8956 49.6128L17.8357 56.6727L19.4578 62.3393L26.5177 55.2793L24.8956 49.6128V49.6128Z" fill="#F78078"/>
</svg>
