<svg width="36" height="35" viewBox="0 0 36 35" fill="none" xmlns="http://www.w3.org/2000/svg">
<path d="M5.9023 6.9856V29.9217L4.89496 28.9179V6.9856H5.9023V6.9856Z" fill="white"/>
<path d="M28.5815 29.6643H5.64185L6.64919 30.6716H28.5815V29.6643V29.6643Z" fill="white"/>
<path d="M5.46121 3.58781L3.64799 1.76418L1.24774 1.72944L0.4245 2.54573L3.45 5.57123L5.36048 7.48171L7.05559 5.7866C7.8758 4.96592 8.98853 4.50482 10.1488 4.50482C11.3091 4.50482 12.4218 4.96592 13.2421 5.7866L29.5158 22.0639C30.3365 22.8841 30.7976 23.9968 30.7976 25.1571C30.7976 26.3174 30.3365 27.4301 29.5158 28.2503L27.8207 29.9489L29.7312 31.8594L32.7567 34.8849L33.5799 34.0616L33.5417 31.6614L31.7285 29.8482C34.2856 27.1163 34.2196 22.85 31.5792 20.1985L15.1109 3.73023C12.4575 1.0918 8.19122 1.02883 5.46121 3.58781Z" fill="#F78078"/>
<path d="M5.20624 29.2258L30.4462 3.98591L31.5539 5.09365L6.31398 30.3336L5.20624 29.2258Z" fill="white"/>
<path d="M33.6694 2.96997L31.5472 5.09213L30.4395 3.98438L32.5616 1.86222L33.6694 2.96997Z" fill="#F78078"/>
<path d="M35.4245 5.26237L30.2766 0.114502H35.4245V5.26237V5.26237Z" fill="#F78078"/>
<path d="M11.422 23.0085L7.99009 26.4404L5.23553 25.6519L8.66744 22.22L11.422 23.0085V23.0085Z" fill="#F78078"/>
<path d="M12.5266 24.1174L9.09467 27.5493L9.88317 30.3039L13.3151 26.872L12.5266 24.1174V24.1174Z" fill="#F78078"/>
</svg>
