<svg width="285" height="31" viewBox="0 0 285 31" fill="none" xmlns="http://www.w3.org/2000/svg">
<path d="M25.3732 29.7385L17.4583 21.8236C17.0543 21.4196 16.8523 20.9778 16.8523 20.4981C16.8523 19.9932 17.0543 19.5387 17.4583 19.1348C17.8622 18.7308 18.3041 18.5288 18.7837 18.5288C19.2887 18.5288 19.7431 18.7308 20.1471 19.1348L28.062 27.0876C28.4407 27.4915 28.6301 27.9333 28.6301 28.413C28.6553 28.8927 28.466 29.3345 28.062 29.7385C27.6581 30.1424 27.2036 30.3444 26.6987 30.3444C26.219 30.3444 25.7772 30.1424 25.3732 29.7385ZM15.0346 30.7231C12.8128 30.7231 10.7805 30.357 8.93743 29.6249C7.0944 28.8675 5.50384 27.8197 4.16575 26.4816C2.85291 25.1183 1.83041 23.5151 1.09824 21.6721C0.366081 19.8038 0 17.7588 0 15.5371C0 13.3153 0.366081 11.283 1.09824 9.43992C1.83041 7.59689 2.85291 6.00634 4.16575 4.66825C5.50384 3.30491 7.0944 2.25716 8.93743 1.525C10.7805 0.76759 12.8128 0.388885 15.0346 0.388885C17.2563 0.388885 19.2761 0.76759 21.0938 1.525C22.9369 2.25716 24.5274 3.30491 25.8655 4.66825C27.2036 6.00634 28.2387 7.59689 28.9709 9.43992C29.7031 11.283 30.0691 13.3153 30.0691 15.5371C30.0691 17.7588 29.7031 19.8038 28.9709 21.6721C28.2387 23.5151 27.2036 25.1183 25.8655 26.4816C24.5274 27.8197 22.9369 28.8675 21.0938 29.6249C19.2761 30.357 17.2563 30.7231 15.0346 30.7231ZM15.0346 27.1633C16.6756 27.1633 18.1778 26.873 19.5412 26.2923C20.9297 25.6863 22.129 24.8658 23.1388 23.8307C24.1487 22.7703 24.9188 21.5332 25.4489 20.1194C26.0044 18.7056 26.2821 17.1781 26.2821 15.5371C26.2821 13.896 26.0044 12.3686 25.4489 10.9547C24.9188 9.54091 24.1487 8.31643 23.1388 7.28131C22.129 6.22093 20.9297 5.40041 19.5412 4.81973C18.1778 4.23905 16.6756 3.94871 15.0346 3.94871C13.3935 3.94871 11.8787 4.23905 10.4901 4.81973C9.12678 5.40041 7.94017 6.22093 6.93029 7.28131C5.94566 8.31643 5.17563 9.54091 4.6202 10.9547C4.06476 12.3686 3.78705 13.896 3.78705 15.5371C3.78705 17.1781 4.06476 18.7056 4.6202 20.1194C5.17563 21.5332 5.94566 22.7703 6.93029 23.8307C7.94017 24.8658 9.12678 25.6863 10.4901 26.2923C11.8787 26.873 13.3935 27.1633 15.0346 27.1633Z" fill="white"/>
<path d="M49.1698 30.7231C46.948 30.7231 44.9156 30.357 43.0726 29.6249C41.2296 28.8675 39.639 27.8197 38.3009 26.4816C36.9881 25.1183 35.9656 23.5151 35.2334 21.6721C34.5013 19.8038 34.1352 17.7588 34.1352 15.5371C34.1352 13.3153 34.5013 11.283 35.2334 9.43992C35.9656 7.59689 36.9881 6.00634 38.3009 4.66825C39.639 3.30491 41.2296 2.25716 43.0726 1.525C44.9156 0.76759 46.948 0.388885 49.1698 0.388885C51.3915 0.388885 53.4112 0.76759 55.229 1.525C57.0721 2.25716 58.6626 3.30491 60.0007 4.66825C61.3388 6.00634 62.3739 7.59689 63.1061 9.43992C63.8382 11.283 64.2043 13.3153 64.2043 15.5371C64.2043 17.7588 63.8382 19.8038 63.1061 21.6721C62.3739 23.5151 61.3388 25.1183 60.0007 26.4816C58.6626 27.8197 57.0721 28.8675 55.229 29.6249C53.4112 30.357 51.3915 30.7231 49.1698 30.7231ZM49.1698 27.1633C50.8108 27.1633 52.313 26.873 53.6763 26.2923C55.0649 25.6863 56.2642 24.8658 57.274 23.8307C58.2839 22.7703 59.0539 21.5332 59.5841 20.1194C60.1396 18.7056 60.4173 17.1781 60.4173 15.5371C60.4173 13.896 60.1396 12.3686 59.5841 10.9547C59.0539 9.54091 58.2839 8.31643 57.274 7.28131C56.2642 6.22093 55.0649 5.40041 53.6763 4.81973C52.313 4.23905 50.8108 3.94871 49.1698 3.94871C47.5287 3.94871 46.0139 4.23905 44.6253 4.81973C43.262 5.40041 42.0754 6.22093 41.0655 7.28131C40.0808 8.31643 39.3108 9.54091 38.7554 10.9547C38.1999 12.3686 37.9222 13.896 37.9222 15.5371C37.9222 17.1781 38.1999 18.7056 38.7554 20.1194C39.3108 21.5332 40.0808 22.7703 41.0655 23.8307C42.0754 24.8658 43.262 25.6863 44.6253 26.2923C46.0139 26.873 47.5287 27.1633 49.1698 27.1633Z" fill="white"/>
<path d="M72.3426 30.3444C71.7872 30.3444 71.3201 30.1551 70.9414 29.7764C70.5627 29.3977 70.3734 28.9306 70.3734 28.3751V2.73685C70.3734 2.15617 70.5627 1.6891 70.9414 1.33565C71.3201 0.956942 71.7872 0.76759 72.3426 0.76759H79.1972C81.3684 0.76759 83.3377 1.13367 85.105 1.86583C86.8975 2.57275 88.4502 3.59525 89.763 4.93334C91.0759 6.24618 92.0858 7.79887 92.7927 9.5914C93.4996 11.3839 93.853 13.3658 93.853 15.5371C93.853 17.7083 93.4996 19.7028 92.7927 21.5206C92.0858 23.3131 91.0759 24.8784 89.763 26.2165C88.4502 27.5294 86.8975 28.5519 85.105 29.284C83.3377 29.991 81.3684 30.3444 79.1972 30.3444H72.3426ZM74.3119 26.8603H79.1972C81.3179 26.8603 83.1862 26.3806 84.802 25.4213C86.4431 24.4366 87.7306 23.0985 88.6648 21.407C89.5989 19.6902 90.066 17.7336 90.066 15.5371C90.066 13.3153 89.5989 11.3587 88.6648 9.66715C87.7306 7.9756 86.4431 6.65013 84.802 5.69075C83.1862 4.73136 81.3179 4.25167 79.1972 4.25167H74.3119V26.8603Z" fill="white"/>
<path d="M102.003 30.3444C101.447 30.3444 100.98 30.1551 100.602 29.7764C100.223 29.3977 100.034 28.9306 100.034 28.3751V2.73685C100.034 2.15617 100.223 1.6891 100.602 1.33565C100.98 0.956942 101.447 0.76759 102.003 0.76759H119.12C119.701 0.76759 120.168 0.944318 120.522 1.29778C120.875 1.62599 121.052 2.06781 121.052 2.62324C121.052 3.15343 120.875 3.58263 120.522 3.91084C120.168 4.23905 119.701 4.40315 119.12 4.40315H103.972V13.6057H114.841C115.422 13.6057 115.889 13.7824 116.242 14.1359C116.596 14.4641 116.772 14.8933 116.772 15.4235C116.772 15.9536 116.596 16.3955 116.242 16.7489C115.889 17.0771 115.422 17.2412 114.841 17.2412H103.972V26.7088H119.12C119.701 26.7088 120.168 26.873 120.522 27.2012C120.875 27.5294 121.052 27.9586 121.052 28.4888C121.052 29.0442 120.875 29.4986 120.522 29.8521C120.168 30.1803 119.701 30.3444 119.12 30.3444H102.003Z" fill="white"/>
<path d="M147.037 30.7231C145.421 30.7231 143.881 30.4706 142.417 29.9657C140.953 29.4608 139.678 28.7539 138.592 27.845C137.506 26.9361 136.711 25.8883 136.206 24.7017C135.954 24.1715 135.954 23.6792 136.206 23.2248C136.484 22.7703 136.938 22.48 137.569 22.3537C138.024 22.2528 138.466 22.3285 138.895 22.581C139.349 22.8082 139.69 23.1617 139.917 23.6413C140.22 24.2725 140.713 24.8532 141.394 25.3834C142.101 25.9136 142.947 26.3428 143.932 26.671C144.916 26.9992 145.951 27.1633 147.037 27.1633C148.249 27.1633 149.36 26.9739 150.37 26.5952C151.405 26.2165 152.238 25.6737 152.869 24.9668C153.5 24.2346 153.816 23.3384 153.816 22.278C153.816 20.9399 153.286 19.7407 152.225 18.6803C151.19 17.6199 149.473 16.9635 147.075 16.711C143.944 16.4081 141.483 15.4866 139.69 13.9465C137.898 12.4064 137.001 10.5003 137.001 8.22807C137.001 6.56177 137.468 5.14794 138.403 3.98658C139.337 2.82522 140.599 1.94157 142.19 1.33565C143.805 0.729719 145.598 0.426755 147.567 0.426755C149.107 0.426755 150.445 0.641354 151.582 1.07055C152.743 1.49975 153.753 2.09305 154.611 2.85046C155.47 3.60787 156.214 4.50414 156.845 5.53927C157.199 6.0947 157.338 6.62489 157.262 7.12982C157.212 7.60952 156.972 7.98822 156.543 8.26594C156.063 8.5689 155.545 8.63202 154.99 8.45529C154.434 8.27856 154.018 7.95035 153.74 7.47066C153.336 6.7385 152.844 6.11995 152.263 5.61501C151.682 5.11007 151.001 4.71874 150.218 4.44102C149.436 4.13806 148.514 3.98658 147.454 3.98658C145.585 3.96133 144.02 4.31479 142.758 5.04695C141.495 5.75386 140.864 6.85211 140.864 8.34168C140.864 9.09909 141.054 9.83125 141.432 10.5382C141.836 11.2198 142.556 11.8131 143.591 12.3181C144.651 12.823 146.166 13.1765 148.135 13.3784C151.14 13.6814 153.475 14.6029 155.141 16.143C156.833 17.6578 157.679 19.6649 157.679 22.1644C157.679 23.6035 157.376 24.8532 156.77 25.9136C156.189 26.9739 155.394 27.8702 154.384 28.6024C153.399 29.3093 152.263 29.8395 150.976 30.1929C149.713 30.5464 148.4 30.7231 147.037 30.7231Z" fill="white"/>
<path d="M177.389 30.7231C175.168 30.7231 173.135 30.357 171.292 29.6249C169.449 28.8675 167.859 27.8197 166.521 26.4816C165.208 25.1183 164.185 23.5151 163.453 21.6721C162.721 19.8038 162.355 17.7588 162.355 15.5371C162.355 13.3153 162.721 11.283 163.453 9.43992C164.185 7.59689 165.208 6.00634 166.521 4.66825C167.859 3.30491 169.449 2.25716 171.292 1.525C173.135 0.76759 175.168 0.388885 177.389 0.388885C179.611 0.388885 181.631 0.76759 183.449 1.525C185.292 2.25716 186.882 3.30491 188.22 4.66825C189.558 6.00634 190.593 7.59689 191.326 9.43992C192.058 11.283 192.424 13.3153 192.424 15.5371C192.424 17.7588 192.058 19.8038 191.326 21.6721C190.593 23.5151 189.558 25.1183 188.22 26.4816C186.882 27.8197 185.292 28.8675 183.449 29.6249C181.631 30.357 179.611 30.7231 177.389 30.7231ZM177.389 27.1633C179.03 27.1633 180.533 26.873 181.896 26.2923C183.284 25.6863 184.484 24.8658 185.494 23.8307C186.503 22.7703 187.274 21.5332 187.804 20.1194C188.359 18.7056 188.637 17.1781 188.637 15.5371C188.637 13.896 188.359 12.3686 187.804 10.9547C187.274 9.54091 186.503 8.31643 185.494 7.28131C184.484 6.22093 183.284 5.40041 181.896 4.81973C180.533 4.23905 179.03 3.94871 177.389 3.94871C175.748 3.94871 174.233 4.23905 172.845 4.81973C171.482 5.40041 170.295 6.22093 169.285 7.28131C168.3 8.31643 167.53 9.54091 166.975 10.9547C166.42 12.3686 166.142 13.896 166.142 15.5371C166.142 17.1781 166.42 18.7056 166.975 20.1194C167.53 21.5332 168.3 22.7703 169.285 23.8307C170.295 24.8658 171.482 25.6863 172.845 26.2923C174.233 26.873 175.748 27.1633 177.389 27.1633Z" fill="white"/>
<path d="M211.108 30.7231C209.063 30.7231 207.144 30.3444 205.352 29.587C203.584 28.8043 202.032 27.7314 200.694 26.368C199.381 24.9794 198.346 23.3636 197.588 21.5206C196.856 19.6776 196.49 17.6831 196.49 15.5371C196.49 13.4163 196.856 11.4471 197.588 9.62927C198.346 7.78625 199.381 6.18306 200.694 4.81973C202.032 3.43114 203.584 2.34552 205.352 1.56287C207.119 0.780213 209.038 0.388885 211.108 0.388885C213.052 0.388885 214.718 0.641355 216.107 1.14629C217.521 1.65123 218.935 2.48438 220.348 3.64574C220.55 3.79722 220.702 3.96133 220.803 4.13806C220.929 4.28954 221.005 4.45365 221.03 4.63038C221.08 4.78186 221.106 4.97121 221.106 5.19843C221.106 5.67812 220.929 6.08208 220.576 6.41029C220.247 6.71325 219.843 6.88998 219.364 6.94047C218.884 6.96572 218.417 6.80161 217.962 6.44816C217.028 5.64025 216.056 5.0217 215.046 4.59251C214.062 4.16331 212.749 3.94871 211.108 3.94871C209.618 3.94871 208.217 4.25167 206.904 4.8576C205.591 5.46352 204.43 6.29667 203.42 7.35705C202.436 8.41742 201.666 9.65452 201.11 11.0684C200.555 12.4569 200.277 13.9465 200.277 15.5371C200.277 17.1529 200.555 18.6677 201.11 20.0815C201.666 21.4701 202.436 22.6946 203.42 23.755C204.43 24.8153 205.591 25.6485 206.904 26.2544C208.217 26.8351 209.618 27.1254 211.108 27.1254C212.396 27.1254 213.607 26.9108 214.744 26.4816C215.905 26.0272 217.016 25.4086 218.076 24.626C218.531 24.2978 218.972 24.1589 219.402 24.2094C219.856 24.2346 220.235 24.4114 220.538 24.7396C220.841 25.0425 220.992 25.4717 220.992 26.0272C220.992 26.2797 220.942 26.5321 220.841 26.7846C220.74 27.0118 220.588 27.2264 220.386 27.4284C219.023 28.514 217.559 29.3345 215.993 29.89C214.453 30.4454 212.825 30.7231 211.108 30.7231Z" fill="white"/>
<path d="M229.261 30.3444C228.705 30.3444 228.238 30.1551 227.86 29.7764C227.481 29.3977 227.292 28.9306 227.292 28.3751V2.73685C227.292 2.15617 227.481 1.6891 227.86 1.33565C228.238 0.956942 228.705 0.76759 229.261 0.76759C229.842 0.76759 230.309 0.956942 230.662 1.33565C231.041 1.6891 231.23 2.15617 231.23 2.73685V28.3751C231.23 28.9306 231.041 29.3977 230.662 29.7764C230.309 30.1551 229.842 30.3444 229.261 30.3444Z" fill="white"/>
<path d="M237.619 30.3444C236.912 30.3444 236.37 30.0415 235.991 29.4355C235.612 28.8296 235.574 28.1858 235.877 27.5041L246.519 2.09305C246.898 1.20941 247.516 0.76759 248.375 0.76759C249.283 0.76759 249.902 1.20941 250.23 2.09305L260.91 27.5799C261.187 28.2868 261.137 28.9306 260.758 29.5113C260.405 30.0667 259.862 30.3444 259.13 30.3444C258.751 30.3444 258.385 30.2434 258.032 30.0414C257.703 29.8142 257.463 29.5113 257.312 29.1326L247.92 5.80436H248.98L239.437 29.1326C239.26 29.5365 238.995 29.8395 238.642 30.0414C238.314 30.2434 237.973 30.3444 237.619 30.3444ZM239.626 23.8307L241.141 20.5738H255.987L257.501 23.8307H239.626Z" fill="white"/>
<path d="M267.352 30.3444C266.797 30.3444 266.33 30.1551 265.951 29.7764C265.598 29.3977 265.421 28.9306 265.421 28.3751V2.73685C265.421 2.18142 265.61 1.71435 265.989 1.33565C266.368 0.956942 266.822 0.76759 267.352 0.76759C267.908 0.76759 268.375 0.956942 268.754 1.33565C269.132 1.71435 269.322 2.18142 269.322 2.73685V26.4059H283.031C283.586 26.4059 284.053 26.5952 284.432 26.9739C284.811 27.3526 285 27.8197 285 28.3751C285 28.9306 284.811 29.3977 284.432 29.7764C284.053 30.1551 283.586 30.3444 283.031 30.3444H267.352Z" fill="white"/>
</svg>
