<svg width="50" height="50" viewBox="0 0 50 50" fill="none" xmlns="http://www.w3.org/2000/svg">
<g clip-path="url(#clip0_1_2532)">
<path d="M14.3081 38.4717H10.2262V48.9794H14.3081V38.4717Z" fill="white"/>
<path fill-rule="evenodd" clip-rule="evenodd" d="M19.9359 48.9794V29.9131L24.0178 30.9697V48.9794H19.9359Z" fill="white"/>
<path d="M33.1992 37.7544H29.1173V48.9795H33.1992V37.7544Z" fill="white"/>
<path fill-rule="evenodd" clip-rule="evenodd" d="M38.3015 48.9796V30.2053L42.3834 28.5703V48.9796H38.3015Z" fill="white"/>
<path fill-rule="evenodd" clip-rule="evenodd" d="M29.8013 35.8886L44.4271 21.2656L47.3133 24.1518L29.8013 41.661L20.4586 32.3183L3.55285 49.2214L0.666626 46.3379L20.4586 26.5459L29.8013 35.8886Z" fill="white"/>
<path fill-rule="evenodd" clip-rule="evenodd" d="M44.0879 24.491H37.9651V20.4092H48.1697V30.611H44.0879V24.491Z" fill="white"/>
<path fill-rule="evenodd" clip-rule="evenodd" d="M4.87092 45.9181H50.2107V50H0.789062V0H4.87092V45.9181Z" fill="white"/>
</g>
<defs>
<clipPath id="clip0_1_2532">
<rect width="50" height="50" fill="white"/>
</clipPath>
</defs>
</svg>
