<svg width="50" height="50" viewBox="0 0 50 50" fill="none" xmlns="http://www.w3.org/2000/svg">
<g clip-path="url(#clip0_1_2699)">
<path fill-rule="evenodd" clip-rule="evenodd" d="M0 4.99951H2.77743V8.75048C2.77743 10.1296 4.02249 11.2502 5.55487 11.2502C7.08725 11.2502 8.3323 10.1296 8.3323 8.75048V4.99951H12.5V8.75048C12.5 10.1296 13.7451 11.2502 15.2774 11.2502C16.8098 11.2502 18.0549 10.1296 18.0549 8.75048V4.99951H22.2226V8.75048C22.2226 10.1296 23.4676 11.2502 25 11.2502C26.5324 11.2502 27.7774 10.1296 27.7774 8.75048V4.99951H31.9451V8.75048C31.9451 10.1296 33.1902 11.2502 34.7226 11.2502C36.2549 11.2502 37.5 10.1296 37.5 8.75048V4.99951H41.6677V8.75048C41.6677 10.1296 42.9128 11.2502 44.4451 11.2502C45.9775 11.2502 47.2226 10.1296 47.2226 8.75048V4.99951H50V15.0012H0V4.99951ZM50 17.5009V50.0001H0V17.5009H50ZM11.3044 43.7633L23.4429 43.7772V41.6723H13.8532C13.8841 40.8437 14.2116 40.0179 14.848 39.1809C15.4844 38.3495 16.5812 37.3513 18.1259 36.1974C18.3237 36.0472 18.6172 35.8331 19.0002 35.5551C20.5419 34.4373 21.5305 33.567 21.9754 32.9441C22.4203 32.3574 22.7416 31.7262 22.9455 31.0478C23.1494 30.3665 23.2483 29.5796 23.2483 28.6843C23.2483 26.9242 22.7292 25.5562 21.6912 24.5719C20.6562 23.5903 19.2165 23.0982 17.3721 23.0982C15.5277 23.0982 14.0478 23.6404 13.0252 24.7164C12.0057 25.7953 11.4928 27.3274 11.4928 29.3183C11.4928 29.3961 11.499 29.5185 11.5083 29.6825C11.5175 29.8494 11.5237 29.9689 11.5237 30.0496H13.9799C13.9799 29.8994 13.9737 29.7493 13.9644 29.5935C13.9551 29.4434 13.949 29.3711 13.949 29.3711C13.949 27.9475 14.2208 26.8881 14.7739 26.1818C15.3207 25.4811 16.1487 25.1307 17.2547 25.1307C18.3607 25.1307 19.1609 25.445 19.7417 26.0761C20.3225 26.7073 20.616 27.6138 20.616 28.7955C20.616 29.5685 20.5203 30.2331 20.3318 30.792C20.1434 31.3509 19.8468 31.8514 19.4328 32.2851C18.9261 32.8134 17.9066 33.6865 16.3649 34.91C15.8799 35.302 15.5122 35.6023 15.2527 35.8053C13.8995 36.887 12.8985 38.0186 12.2467 39.2032C11.5948 40.3849 11.2704 41.6445 11.2704 42.9875C11.2704 43.2016 11.2704 43.3601 11.2766 43.4685C11.2827 43.5742 11.292 43.6687 11.3013 43.7605L11.3044 43.7633ZM26.5849 43.7633L38.7234 43.7772V41.6723H29.1337C29.1646 40.8437 29.4921 40.0179 30.1285 39.1809C30.765 38.3495 31.8617 37.3513 33.4065 36.1974C33.6042 36.0472 33.8977 35.8331 34.2808 35.5551C35.8224 34.4373 36.811 33.567 37.2559 32.9441C37.7008 32.3574 38.0252 31.7262 38.226 31.0478C38.4299 30.3665 38.5288 29.5796 38.5288 28.6843C38.5288 26.9242 38.0067 25.5562 36.9717 24.5719C35.9367 23.5903 34.497 23.0982 32.6526 23.0982C30.8082 23.0982 29.3284 23.6404 28.3057 24.7164C27.2862 25.7953 26.7734 27.3274 26.7734 29.3183C26.7734 29.3961 26.7795 29.5185 26.7888 29.6825C26.7981 29.8494 26.8043 29.9689 26.8043 30.0496H29.2604C29.2604 29.8994 29.2542 29.7493 29.2449 29.5935C29.2357 29.4434 29.2295 29.3711 29.2295 29.3711C29.2295 27.9475 29.5014 26.8881 30.0544 26.1818C30.6012 25.4811 31.4292 25.1307 32.5352 25.1307C33.6413 25.1307 34.4414 25.445 35.0222 26.0761C35.6031 26.7073 35.8966 27.6138 35.8966 28.7955C35.8966 29.5685 35.8008 30.2331 35.6123 30.792C35.4239 31.3509 35.1273 31.8514 34.7133 32.2851C34.2066 32.8134 33.1871 33.6865 31.6455 34.91C31.1604 35.302 30.7928 35.6023 30.5332 35.8053C29.1801 36.887 28.1791 38.0186 27.5272 39.2032C26.8753 40.3849 26.5509 41.6445 26.5509 42.9875C26.5509 43.2016 26.5509 43.3601 26.5571 43.4685C26.5633 43.5742 26.5725 43.6687 26.5818 43.7605L26.5849 43.7633Z" fill="white"/>
<path d="M6.94202 1.25125C6.94202 0.561673 6.32104 0 5.55176 0C4.78248 0 4.1615 0.558892 4.1615 1.25125V8.75042C4.1615 9.43999 4.78248 10.0017 5.55176 10.0017C6.32104 10.0017 6.94202 9.44278 6.94202 8.75042V1.25125ZM36.1097 1.25125C36.1097 0.561673 35.4887 0 34.7195 0C33.9502 0 33.3292 0.558892 33.3292 1.25125V8.75042C33.3292 9.43999 33.9502 10.0017 34.7195 10.0017C35.4887 10.0017 36.1097 9.44278 36.1097 8.75042V1.25125ZM26.3872 1.25125C26.3872 0.561673 25.7662 0 24.9969 0C24.2276 0 23.6066 0.558892 23.6066 1.25125V8.75042C23.6066 9.43999 24.2276 10.0017 24.9969 10.0017C25.7662 10.0017 26.3872 9.44278 26.3872 8.75042V1.25125ZM16.6646 1.25125C16.6646 0.561673 16.0436 0 15.2743 0C14.505 0 13.8841 0.558892 13.8841 1.25125V8.75042C13.8841 9.43999 14.505 10.0017 15.2743 10.0017C16.0436 10.0017 16.6646 9.44278 16.6646 8.75042V1.25125ZM45.8323 1.25125C45.8323 0.561673 45.2113 0 44.442 0C43.6727 0 43.0518 0.558892 43.0518 1.25125V8.75042C43.0518 9.43999 43.6727 10.0017 44.442 10.0017C45.2113 10.0017 45.8323 9.44278 45.8323 8.75042V1.25125Z" fill="white"/>
</g>
<defs>
<clipPath id="clip0_1_2699">
<rect width="50" height="50" fill="white"/>
</clipPath>
</defs>
</svg>
