<svg width="50" height="50" viewBox="0 0 50 50" fill="none" xmlns="http://www.w3.org/2000/svg">
<path d="M5.42984 0H44.8359C45.4143 0 45.937 0.236347 46.3179 0.614503C46.6961 0.992659 46.9325 1.51818 46.9325 2.09654V27.6916C46.9325 28.2699 46.6961 28.7927 46.3179 29.1708C45.9398 29.549 45.4143 29.7853 44.8387 29.7853H5.42984C4.85149 29.7853 4.32874 29.549 3.95059 29.1708C3.57243 28.7927 3.33608 28.2672 3.33608 27.6916V2.09654C3.3333 1.51818 3.56965 0.992659 3.94781 0.614503C4.32596 0.236347 4.85149 0 5.42984 0ZM5.42984 1.04271C5.14901 1.04271 4.88485 1.15393 4.68465 1.35135C4.48724 1.54877 4.37601 1.8157 4.37601 2.09654V27.6916C4.37601 27.9724 4.48724 28.2366 4.68465 28.4368C4.88207 28.6342 5.14901 28.7454 5.42984 28.7454H44.8359C45.1167 28.7454 45.3809 28.6342 45.5811 28.4368C45.7785 28.2393 45.8897 27.9724 45.8897 27.6916V2.09654C45.8897 1.8157 45.7785 1.55155 45.5811 1.35135C45.3837 1.15393 45.1167 1.04271 44.8359 1.04271H5.42984V1.04271Z" fill="white"/>
<path fill-rule="evenodd" clip-rule="evenodd" d="M5.42982 2.08252C5.42982 2.08252 5.42426 2.0853 5.42426 2.08808C5.42426 2.08808 5.42148 2.09086 5.4187 2.09642V27.6942C5.4187 27.6942 5.42148 27.6998 5.42426 27.6998C5.42426 27.6998 5.42704 27.7026 5.4326 27.7054H44.8387C44.8387 27.7054 44.8442 27.7026 44.8442 27.6998C44.8442 27.6998 44.847 27.697 44.8498 27.6915V2.09364C44.8498 2.09364 44.847 2.08808 44.8442 2.08808C44.8442 2.08808 44.8415 2.0853 44.8359 2.08252H5.42982V2.08252ZM20.2307 14.9315C19.708 15.9519 19.7024 18.8993 19.758 21.5103L17.795 21.8551C17.6921 21.552 17.5336 21.2878 17.3362 21.0682C16.9636 20.6511 16.4492 20.3758 15.8903 20.2479C15.3119 20.1172 14.6946 20.1422 14.1441 20.3285C13.8215 20.437 13.524 20.6038 13.2738 20.829L11.9308 19.322C12.3868 18.916 12.9234 18.6129 13.4962 18.4183C14.3971 18.1124 15.3981 18.068 16.3324 18.2821C16.8218 18.3933 17.2945 18.5768 17.731 18.827C17.7672 16.8417 17.9368 14.9954 18.4373 14.0167C19.3854 12.162 20.8063 12.0731 22.9918 15.5515C23.37 13.1575 24.0874 10.1573 25.4999 9.5511C26.74 9.01723 28.1192 9.8514 29.5623 13.2103C29.7013 13.5356 29.8431 13.911 29.9822 14.2753C30.2463 14.9704 30.0183 15.6739 30.2463 15.6238C31.1305 15.4236 31.4447 13.6107 31.7478 11.8395C32.1009 9.79023 32.4457 7.78266 33.925 7.00133L34.8648 8.78645C34.2698 9.10065 34.0084 10.6244 33.7387 12.1787C33.3216 14.6034 32.8934 17.092 30.6884 17.5869C29.2064 17.9206 28.692 16.5581 28.0942 14.9815C27.9774 14.6729 27.8578 14.3531 27.7077 14.0056C26.8512 12.0119 26.4425 11.3418 26.2979 11.403C25.4276 11.7755 24.8993 16.2884 24.6935 18.0513C24.5906 18.9355 24.5267 19.4833 23.8566 19.6751L23.0502 19.9059L22.6748 19.1524C20.9592 15.7073 20.3281 14.7313 20.228 14.9287L20.2307 14.9315ZM28.7226 21.3518L30.4048 20.2451C31.6394 22.1192 36.3719 18.9689 37.2227 18.4016C37.4285 18.2654 37.5425 18.1875 37.7538 18.1514L38.0124 19.5945L38.1097 20.1339C38.1848 20.1144 38.3238 20.0839 38.3377 20.0839C37.2283 20.8207 31.0721 24.9165 28.7226 21.3518V21.3518Z" fill="white"/>
<path d="M17.9618 29.7351C18.0091 29.6545 18.1509 29.5071 18.0647 29.4848L17.8562 29.4264C17.3751 29.1484 17.3251 29.2012 16.2323 28.7925H16.1767L16.021 29.065L4.80977 48.4872C4.53172 48.9682 4.69577 49.5855 5.17681 49.8636C5.65784 50.1416 6.27513 49.9776 6.55596 49.4965L17.9618 29.7351ZM32.1649 29.2207C32.1649 29.3959 32.2066 29.5738 32.3011 29.7351L43.7098 49.4965C43.9878 49.9776 44.6051 50.1416 45.0889 49.8636C45.57 49.5855 45.734 48.9682 45.456 48.4872L34.3226 29.2012C33.8944 28.4588 33.4384 29.0511 32.9907 29.1234C32.5903 29.1873 32.1732 28.6562 32.1677 29.2235L32.1649 29.2207ZM26.1422 29.065C26.1422 28.5061 25.689 29.1679 25.1329 29.1679C24.5768 29.1679 24.1207 28.5089 24.1207 29.065V46.132C24.1207 46.6909 24.574 47.1414 25.1301 47.1414C25.6862 47.1414 26.1422 46.6882 26.1422 46.132V29.065Z" fill="white"/>
</svg>
