<svg width="50" height="50" viewBox="0 0 50 50" fill="none" xmlns="http://www.w3.org/2000/svg">
<path d="M14.76 9.7041C18.2774 9.7041 21.4639 11.1083 23.7746 13.38C26.088 15.6545 27.52 18.7965 27.52 22.2667C27.52 27.2105 25.9351 28.7064 24.1778 30.3636C22.3565 32.082 20.31 34.009 20.31 42.2839V43.3266H9.2128V42.2839C9.2128 34.009 7.1663 32.082 5.34504 30.3636C3.58495 28.7064 2.00281 27.2105 2.00281 22.2667C2.00281 18.7965 3.4348 15.6545 5.74822 13.38C8.05886 11.1083 11.2454 9.7041 14.7628 9.7041H14.76Z" fill="white"/>
<path d="M21.3332 44.5947H8.18677V46.6774H21.3332V44.5947Z" fill="white"/>
<path d="M19.448 47.9175H10.0775V50.0001H19.448V47.9175Z" fill="white"/>
<path d="M15.8027 1.04271C15.8027 0.467134 15.3356 0 14.76 0C14.1844 0 13.7173 0.467134 13.7173 1.04271V7.21833C13.7173 7.79391 14.1844 8.26104 14.76 8.26104C15.3356 8.26104 15.8027 7.79391 15.8027 7.21833V1.04271Z" fill="white"/>
<path d="M25.8989 3.90944C26.1297 3.38392 25.8906 2.76941 25.365 2.53863C24.8395 2.30784 24.225 2.54697 23.9942 3.07249L21.4889 8.71981C21.2582 9.24533 21.4973 9.85984 22.0228 10.0906C22.5483 10.3214 23.1628 10.0823 23.3936 9.55676L25.8989 3.90944V3.90944Z" fill="white"/>
<path d="M5.52851 3.07249C5.29773 2.54697 4.68322 2.30784 4.1577 2.53863C3.63217 2.76941 3.39304 3.38392 3.62383 3.90944L6.12911 9.55676C6.3599 10.0823 6.9744 10.3214 7.49993 10.0906C8.02546 9.85984 8.26458 9.24533 8.0338 8.71981L5.52851 3.07249Z" fill="white"/>
<path fill-rule="evenodd" clip-rule="evenodd" d="M37.7469 27.0825C34.5826 27.0825 31.7186 28.3644 29.6443 30.4387C27.57 32.513 26.2882 35.3769 26.2882 38.5412C26.2882 41.7055 27.57 44.5695 29.6443 46.6437C31.7186 48.718 34.5826 49.9999 37.7469 49.9999C40.9112 49.9999 43.7751 48.718 45.8494 46.6437C47.9237 44.5695 49.2056 41.7055 49.2056 38.5412C49.2056 35.3769 47.9237 32.513 45.8494 30.4387C43.7751 28.3644 40.9112 27.0825 37.7469 27.0825ZM35.1276 33.1052C35.6921 32.499 36.44 32.1515 37.3743 32.0569V31.2506H38.5533V32.0569C39.418 32.1626 40.1048 32.4546 40.6164 32.9412C41.1253 33.4278 41.4506 34.0784 41.5924 34.8931L39.532 35.1628C39.4069 34.5205 39.0816 34.0867 38.5533 33.8587V37.0453C39.8573 37.3984 40.7471 37.8572 41.217 38.4189C41.6897 38.9805 41.9261 39.7007 41.9261 40.5821C41.9261 41.5637 41.6285 42.3923 41.0363 43.0652C40.4412 43.7408 39.6126 44.1524 38.5505 44.3053V45.829H37.3715V44.3442C36.4317 44.2302 35.667 43.8799 35.0803 43.2932C34.4936 42.7093 34.121 41.8807 33.957 40.8101L36.0841 40.5821C36.1703 41.0159 36.3344 41.3913 36.5735 41.7055C36.8098 42.0197 37.0768 42.2477 37.3715 42.3895V38.975C36.3066 38.6691 35.5252 38.2103 35.0275 37.593C34.5326 36.9757 34.2823 36.2278 34.2823 35.3491C34.2823 34.4705 34.5631 33.7114 35.1248 33.1052H35.1276Z" fill="white"/>
<path fill-rule="evenodd" clip-rule="evenodd" d="M36.6097 34.3872C36.4206 34.6485 36.326 34.9377 36.326 35.2519C36.326 35.5383 36.4122 35.808 36.5846 36.0527C36.7598 36.3002 37.024 36.5004 37.3771 36.6533V33.8311C37.0546 33.9395 36.8015 34.1258 36.6097 34.3844V34.3872Z" fill="white"/>
<path fill-rule="evenodd" clip-rule="evenodd" d="M38.556 39.3281V42.5063C38.9648 42.4312 39.2957 42.2421 39.5515 41.9418C39.8073 41.6388 39.9352 41.2856 39.9352 40.8769C39.9352 40.5126 39.8267 40.2012 39.6126 39.9371C39.3985 39.6729 39.0454 39.4699 38.556 39.3309V39.3281Z" fill="white"/>
</svg>
