<svg width="50" height="50" viewBox="0 0 50 50" fill="none" xmlns="http://www.w3.org/2000/svg">
<g clip-path="url(#clip0_1_2502)">
<path fill-rule="evenodd" clip-rule="evenodd" d="M17.5491 0C20.7134 0 23.2798 2.56646 23.2798 5.73073C23.2798 8.89501 20.7134 11.4615 17.5491 11.4615C14.3848 11.4615 11.8184 8.89501 11.8184 5.73073C11.8184 2.56646 14.3848 0 17.5491 0Z" fill="white"/>
<path d="M33.403 9.40857C35.4348 6.98192 35.1148 3.36756 32.6882 1.33568C30.2615 -0.696198 26.6471 -0.376168 24.6153 2.05049C22.5834 4.47714 22.9034 8.0915 25.3301 10.1234C27.7567 12.1553 31.3711 11.8352 33.403 9.40857Z" fill="white"/>
<path fill-rule="evenodd" clip-rule="evenodd" d="M37.3912 11.5646L43.2276 9.5459V23.0149L37.3912 20.9962V11.5646Z" fill="white"/>
<path fill-rule="evenodd" clip-rule="evenodd" d="M23.2771 23.9658H27.5814C27.5814 26.3432 25.6545 28.2701 23.2771 28.2701C20.8997 28.2701 18.9728 26.3432 18.9728 23.9658H23.2771Z" fill="white"/>
<path d="M20.0082 26.2151L7.33618 48.9541L9.20884 49.9977L21.8808 27.2586L20.0082 26.2151Z" fill="white"/>
<path d="M26.2262 25.5861L24.3528 26.6284L37.3537 49.9959L39.2271 48.9536L26.2262 25.5861Z" fill="white"/>
<path d="M24.3559 27.4829H22.2037V46.8384H24.3559V27.4829Z" fill="white"/>
<path fill-rule="evenodd" clip-rule="evenodd" d="M12.1771 24.3437H34.3798C35.4448 24.3437 36.3151 23.4733 36.3151 22.4084V10.1517C36.3151 9.40371 35.8841 8.75028 35.2585 8.42773C34.213 10.844 31.8078 12.5346 29.0106 12.5346C26.6054 12.5346 24.4921 11.2861 23.2798 9.40093C22.0703 11.2861 19.9543 12.5346 17.5491 12.5346C14.7491 12.5346 12.3439 10.844 11.3012 8.42773C10.6756 8.75028 10.2446 9.40093 10.2446 10.1517V22.4084C10.2446 23.4733 11.1149 24.3437 12.1798 24.3437H12.1771Z" fill="white"/>
</g>
<defs>
<clipPath id="clip0_1_2502">
<rect width="50" height="50" fill="white"/>
</clipPath>
</defs>
</svg>
