<svg width="50" height="50" viewBox="0 0 50 50" fill="none" xmlns="http://www.w3.org/2000/svg">
<path d="M26.0284 29.6587H23.9717V43.5831H26.0284V29.6587Z" fill="white"/>
<path d="M43.5169 43.0312H6.48303V45.0879H43.5169V43.0312Z" fill="white"/>
<path d="M43.5142 35.8315H41.4575V43.5832H43.5142V35.8315Z" fill="white"/>
<path d="M7.51279 35.8315H5.45612V45.0907H7.51279V35.8315Z" fill="white"/>
<path d="M2.40266 22.4288H12.3098C12.9716 22.4288 13.573 22.6979 14.0068 23.1345C14.4407 23.5683 14.7125 24.1697 14.7125 24.8314V34.7441H0V24.8314C0 24.1697 0.269098 23.5683 0.705695 23.1345C1.13955 22.7006 1.7409 22.4288 2.40266 22.4288V22.4288ZM7.35625 12.1729C8.65232 12.1729 9.82481 12.6973 10.6733 13.5485C11.5218 14.397 12.0462 15.5695 12.0462 16.8656C12.0462 18.1616 11.5218 19.3341 10.6733 20.1826C9.82481 21.0311 8.65232 21.5556 7.35625 21.5556C6.06019 21.5556 4.88769 21.0311 4.03921 20.1826C3.19073 19.3341 2.66626 18.1616 2.66626 16.8656C2.66626 15.5695 3.19073 14.397 4.04196 13.5485C4.89044 12.7001 6.06294 12.1729 7.359 12.1729H7.35625Z" fill="white"/>
<path d="M20.0451 16.2587H29.9522C30.614 16.2587 31.2154 16.5278 31.6492 16.9644C32.0831 17.3982 32.3549 17.9996 32.3549 18.6613V28.574H17.6424V18.6586C17.6424 17.9968 17.9115 17.3955 18.3481 16.9616C18.7819 16.5278 19.3833 16.2559 20.0451 16.2559V16.2587ZM24.9987 6C26.2947 6 27.4672 6.52447 28.3157 7.37295C29.1642 8.22143 29.6914 9.39393 29.6914 10.69C29.6914 11.986 29.1669 13.1585 28.3157 14.007C27.4672 14.8555 26.2947 15.38 24.9987 15.38C23.7026 15.38 22.5301 14.8555 21.6816 14.007C20.8331 13.1585 20.3087 11.986 20.3087 10.69C20.3087 9.39393 20.8331 8.22143 21.6816 7.37295C22.5301 6.52447 23.7026 6 24.9987 6V6Z" fill="white"/>
<path d="M37.6901 22.4286H47.5973C48.2591 22.4286 48.8604 22.6977 49.2943 23.1343C49.7281 23.5681 50 24.1695 50 24.8312V34.7439H35.2875V24.8312C35.2875 24.1695 35.5566 23.5681 35.9932 23.1343C36.427 22.7004 37.0284 22.4286 37.6901 22.4286V22.4286ZM42.6437 12.1699C43.9398 12.1699 45.1123 12.6944 45.9608 13.5456C46.8093 14.3941 47.3337 15.5666 47.3337 16.8627C47.3337 18.1587 46.8093 19.3312 45.9608 20.1797C45.1123 21.0282 43.9398 21.5526 42.6437 21.5526C41.3477 21.5526 40.1752 21.0282 39.3267 20.1797C38.4782 19.3312 37.951 18.1587 37.951 16.8627C37.951 15.5666 38.4755 14.3941 39.3267 13.5456C40.1752 12.6971 41.3477 12.1699 42.6437 12.1699Z" fill="white"/>
</svg>
