<svg width="50" height="50" viewBox="0 0 50 50" fill="none" xmlns="http://www.w3.org/2000/svg">
<g clip-path="url(#clip0_1_2517)">
<path fill-rule="evenodd" clip-rule="evenodd" d="M6.46693 14.5226H16.9246L18.3705 10.1738H32.0397L33.4856 14.5226H43.9433C47.1326 14.5226 49.7435 17.1336 49.7435 20.3229V44.2023C49.7435 47.3916 47.1326 50.0025 43.9433 50.0025H6.46693C3.27763 50.0025 0.666687 47.3916 0.666687 44.2023V20.3201C0.666687 17.1308 3.27485 14.5198 6.46693 14.5198V14.5226ZM11.1716 24.2212V44.5109H39.2414V24.2212H11.1716ZM20.5866 13.5828V17.2643H29.8236V13.5828H20.5866ZM38.0012 17.8148C37.4118 17.8148 36.9335 18.2931 36.9335 18.8825C36.9335 19.472 37.4118 19.9503 38.0012 19.9503H44.3354C44.9248 19.9503 45.4031 19.472 45.4031 18.8825C45.4031 18.2931 44.9248 17.8148 44.3354 17.8148H38.0012Z" fill="white"/>
<path d="M10.2262 11.9647C10.2262 11.3752 9.74797 10.897 9.15849 10.897C8.56902 10.897 8.09076 11.3752 8.09076 11.9647V14.5228C8.09076 15.1123 8.56902 15.5906 9.15849 15.5906C9.74797 15.5906 10.2262 15.1123 10.2262 14.5228V11.9647Z" fill="white"/>
<path d="M19.2714 2.26328C18.9767 1.75444 18.326 1.58205 17.8172 1.87679C17.3083 2.17153 17.1359 2.82218 17.4307 3.33102L19.3437 6.64266C19.6384 7.15151 20.2891 7.3239 20.7979 7.02916C21.3068 6.73442 21.4792 6.08377 21.1844 5.57493L19.2714 2.26328Z" fill="white"/>
<path d="M32.9823 3.33102C33.277 2.82218 33.1018 2.17153 32.5958 1.87679C32.0869 1.58205 31.4363 1.75444 31.1416 2.26328L29.2285 5.57493C28.9338 6.08377 29.1062 6.73442 29.615 7.02916C30.1239 7.3239 30.7745 7.15151 31.0693 6.64266L32.9823 3.33102Z" fill="white"/>
<path d="M26.2728 1.06773C26.2728 0.478256 25.7945 0 25.2051 0C24.6156 0 24.1373 0.478256 24.1373 1.06773V6.10889C24.1373 6.69836 24.6156 7.17662 25.2051 7.17662C25.7945 7.17662 26.2728 6.69836 26.2728 6.10889V1.06773Z" fill="white"/>
<path fill-rule="evenodd" clip-rule="evenodd" d="M26.2451 37.4512C26.3618 37.5819 26.3563 37.7848 26.2312 37.91L25.4359 38.7052C25.3052 38.8359 25.0911 38.8359 24.9604 38.7052L24.1652 37.91C24.0401 37.7848 24.0345 37.5819 24.1513 37.4512H26.2451V37.4512Z" fill="white"/>
<path fill-rule="evenodd" clip-rule="evenodd" d="M24.4627 39.6788L24.6712 37.877H25.7696L25.967 39.5953L25.1968 41.7225L24.4627 39.6788Z" fill="white"/>
<path fill-rule="evenodd" clip-rule="evenodd" d="M27.1432 37.4512L25.194 42.8315L23.2671 37.4512H19.6829C16.3379 37.5791 16.8217 43.346 16.8217 43.346H33.5885C33.5885 43.346 34.0723 37.5791 30.7273 37.4512H27.1432V37.4512Z" fill="white"/>
<path fill-rule="evenodd" clip-rule="evenodd" d="M28.6447 26.7183C29.7263 28.1586 29.4177 29.9326 29.515 30.0911C29.6123 30.2496 30.3881 31.1088 29.3482 32.3545C26.8095 37.9378 23.5451 37.9378 21.0093 32.3545C19.9693 31.1088 20.9286 30.65 20.8424 30.0911C20.7562 29.535 20.5616 26.6599 22.255 26.7822C22.7694 24.188 27.3239 25.848 28.6419 26.7155L28.6447 26.7183ZM21.5987 29.6991C21.6071 29.8075 21.6154 29.902 21.6265 29.9743C21.6516 30.13 21.646 30.0855 21.6404 30.2357C21.5932 31.1116 20.9564 31.0587 21.6182 31.8512L21.6877 31.9318L21.7322 32.0292C22.2744 33.2192 23.6007 35.7523 25.1829 35.7523C26.765 35.7523 28.0913 33.2192 28.6336 32.0292L28.678 31.9318L28.7476 31.8512C28.9422 31.6176 29.1507 31.2895 29.0868 30.9698C29.0479 30.7696 28.945 30.6722 28.8449 30.5082C28.7281 30.3191 28.7086 30.1161 28.7031 29.9048C28.5807 29.4738 28.3472 28.8704 27.9245 28.584C27.3462 28.192 26.1894 29.4349 25.3942 28.9594C24.5239 28.4339 21.988 28.2949 21.5987 29.7185V29.6991V29.6991Z" fill="white"/>
</g>
<defs>
<clipPath id="clip0_1_2517">
<rect width="50" height="50" fill="white"/>
</clipPath>
</defs>
</svg>
