<svg width="50" height="50" viewBox="0 0 50 50" fill="none" xmlns="http://www.w3.org/2000/svg">
<path d="M3.7262 47.8809C3.14222 47.8809 2.66669 48.3564 2.66669 48.9404C2.66669 49.5244 3.14222 49.9999 3.7262 49.9999H46.9298C47.5138 49.9999 47.9893 49.5271 47.9893 48.9404C47.9893 48.3536 47.5138 47.8809 46.9298 47.8809H3.7262Z" fill="white"/>
<path fill-rule="evenodd" clip-rule="evenodd" d="M33.3341 3.90434L43.2479 13.8181L45.9203 11.1457C47.5694 9.49945 47.5666 6.802 45.9203 5.15573L41.9993 1.23471C40.353 -0.411569 37.6556 -0.411569 36.0093 1.23471L33.3369 3.90712L33.3341 3.90434Z" fill="white"/>
<path fill-rule="evenodd" clip-rule="evenodd" d="M5.10547 38.5847L8.10324 29.1353L18.017 39.0491L8.56765 42.0441L5.10547 38.5847Z" fill="white"/>
<path fill-rule="evenodd" clip-rule="evenodd" d="M3.50092 43.6515L4.74674 39.7222L7.43028 42.4057L3.50092 43.6515Z" fill="white"/>
<path fill-rule="evenodd" clip-rule="evenodd" d="M32.586 4.65234L37.1689 9.23522L13.4342 32.9699L8.85132 28.3871L32.586 4.65234ZM37.917 9.98327L14.1822 33.718L18.7651 38.3009L42.4998 14.5661L37.917 9.98327Z" fill="white"/>
</svg>
