<svg width="50" height="50" viewBox="0 0 50 50" fill="none" xmlns="http://www.w3.org/2000/svg">
<path fill-rule="evenodd" clip-rule="evenodd" d="M10 2.38311V41.1469H41.2507V2.38311C41.2507 1.7269 40.9838 1.13186 40.5528 0.700871C40.1218 0.269885 39.5267 0.0029512 38.8705 0.0029512H12.3829C11.7267 0.000170643 11.1289 0.267104 10.6979 0.698091C10.2669 1.12908 10 1.7269 10 2.38311ZM19.8487 24.647C19.9516 22.1862 20.1824 19.7588 20.6495 17.3759C20.8136 16.5389 21.0082 15.7075 21.239 14.8845H30.2258C30.4371 15.7159 30.6123 16.5528 30.7596 17.3981C31.1712 19.7783 31.3408 22.1974 31.4131 24.647H33.137C33.6514 24.647 34.1186 24.8556 34.455 25.1948C34.7915 25.534 35.0028 25.9984 35.0028 26.5128V34.9323L33.4651 33.3947L29.8615 29.7911L29.7142 29.6437H26.5193V34.5597H24.7175V29.6437H21.5421L21.3947 29.7911L17.7911 33.3947L16.2535 34.9323V26.5128C16.2535 25.9984 16.462 25.5313 16.8012 25.1948C17.1377 24.8584 17.6048 24.647 18.1192 24.647H19.8515H19.8487ZM21.5032 13.9836C22.2901 11.4505 23.4245 8.98693 25.0484 6.60956C25.3292 6.19803 25.8909 6.09237 26.2996 6.37321C26.4136 6.45107 26.5054 6.55116 26.5693 6.66517C28.1737 9.02586 29.2526 11.4728 29.9811 13.9836H21.5059H21.5032Z" fill="white"/>
<path fill-rule="evenodd" clip-rule="evenodd" d="M10 42.1865V47.617C10 48.2732 10.2669 48.8682 10.6979 49.2992C11.1289 49.7302 11.7239 49.9971 12.3802 49.9971H38.8678C39.524 49.9971 40.119 49.7302 40.55 49.2992C40.981 48.8682 41.2479 48.2732 41.2479 47.617V42.1865H10ZM23.7109 46.0932C23.7109 45.0366 24.5673 44.1774 25.6267 44.1774C26.6861 44.1774 27.5425 45.0338 27.5425 46.0932C27.5425 47.1526 26.6861 48.009 25.6267 48.009C24.5673 48.009 23.7109 47.1526 23.7109 46.0932Z" fill="white"/>
<path fill-rule="evenodd" clip-rule="evenodd" d="M22.9574 12.9409H28.5491C27.8484 10.9861 26.8864 9.13983 25.788 7.37695C24.6174 9.12314 23.6804 10.9806 22.9574 12.9409V12.9409ZM17.2906 32.4159L21.1056 28.601H30.1396L33.9545 32.4159V26.5128C33.9545 26.2931 33.8683 26.0846 33.7126 25.9316C33.5569 25.7759 33.3512 25.6897 33.1315 25.6897H30.3954L30.3676 24.6776C30.3009 22.3002 30.134 19.9201 29.7309 17.576C29.6363 17.0227 29.5279 16.4749 29.4028 15.9272H22.0398C21.9036 16.4749 21.7813 17.0255 21.67 17.5788C21.2085 19.9228 20.986 22.3086 20.8859 24.6915L20.8442 25.6897H18.1137C17.894 25.6897 17.6855 25.7759 17.5326 25.9316C17.3768 26.0873 17.2906 26.2931 17.2906 26.5128V32.4159V32.4159Z" fill="white"/>
</svg>
